<?xml version="1.0" standalone="no"?>
<!DOCTYPE svg PUBLIC "-//W3C//DTD SVG 20010904//EN"
 "http://www.w3.org/TR/2001/REC-SVG-20010904/DTD/svg10.dtd">
<svg version="1.0" xmlns="http://www.w3.org/2000/svg"
 width="94.000000pt" height="94.000000pt" viewBox="0 0 94.000000 94.000000"
 preserveAspectRatio="xMidYMid meet">
<metadata>
Created by potrace 1.14, written by Peter Selinger 2001-2017
</metadata>
<g transform="translate(0.000000,94.000000) scale(0.100000,-0.100000)"
fill="#000000" stroke="none">
<path d="M230 899 c-73 -40 -152 -119 -190 -191 l-31 -58 14 -199 c16 -226 18
-231 110 -318 193 -183 488 -175 672 18 61 63 109 155 124 234 11 60 2 74 -33
51 -19 -12 -26 -13 -26 -4 0 7 5 69 10 138 9 121 8 126 -15 165 -32 55 -121
138 -183 169 -49 25 -58 26 -224 26 l-173 0 -55 -31z"/>
</g>
</svg>
