<svg xmlns="http://www.w3.org/2000/svg" xmlns:xlink="http://www.w3.org/1999/xlink" width="562.8" height="428.4" viewBox="0 0 562.8 428.4">
  <defs>
    <linearGradient id="linear-gradient" x1="0.5" x2="0.5" y2="1" gradientUnits="objectBoundingBox">
      <stop offset="0"/>
      <stop offset="1" stop-color="#545454"/>
    </linearGradient>
  </defs>
  <g id="Group_37" data-name="Group 37" transform="translate(-961.8 -368.1)">
    <path id="Path_96" data-name="Path 96" d="M449.4,585,564.6,156.6H472.2L402,451.8h-1.2L327.6,156.6H239.4L165,448.2h-1.2L96,156.6H1.8L115.2,585h95.4L282,293.4h1.2L355.8,585Z" transform="translate(960 211.5)" fill="url(#linear-gradient)"/>
    <path id="Path_97" data-name="Path 97" d="M9.99,10.43V7.07H6.18a3.189,3.189,0,0,0-1.155.255,4.016,4.016,0,0,0-1.2.75,4.25,4.25,0,0,0-.945,1.26,3.88,3.88,0,0,0-.39,1.785v5.64a2.532,2.532,0,0,1-.3,1.275,2.712,2.712,0,0,1-.72.84,2.718,2.718,0,0,1-.9.45,3.088,3.088,0,0,1-.81.135v2.61a3.088,3.088,0,0,1,.81.135,3.078,3.078,0,0,1,.9.42,2.522,2.522,0,0,1,.72.765,2.165,2.165,0,0,1,.3,1.17v5.82a3.88,3.88,0,0,0,.39,1.785,4.25,4.25,0,0,0,.945,1.26,4.016,4.016,0,0,0,1.2.75,3.189,3.189,0,0,0,1.155.255H9.99V31.07H8.37a1.524,1.524,0,0,1-.855-.21,1.55,1.55,0,0,1-.495-.525,1.827,1.827,0,0,1-.225-.7,6.314,6.314,0,0,1-.045-.72v-4.8A3.2,3.2,0,0,0,6.4,22.535a3.366,3.366,0,0,0-.81-.99,3.046,3.046,0,0,0-.975-.54,4.048,4.048,0,0,0-.84-.2v-.09a4.581,4.581,0,0,0,.84-.18,2.819,2.819,0,0,0,.975-.525,3.183,3.183,0,0,0,.81-1.05A3.938,3.938,0,0,0,6.75,17.18V12.62a6.548,6.548,0,0,1,.045-.75,1.827,1.827,0,0,1,.225-.705,1.55,1.55,0,0,1,.495-.525,1.524,1.524,0,0,1,.855-.21Z" transform="translate(973 369)" fill="#fff"/>
    <path id="Path_97-2" data-name="Path 97" d="M9.99,10.43V7.07H6.18a3.189,3.189,0,0,0-1.155.255,4.016,4.016,0,0,0-1.2.75,4.25,4.25,0,0,0-.945,1.26,3.88,3.88,0,0,0-.39,1.785v5.64a2.532,2.532,0,0,1-.3,1.275,2.712,2.712,0,0,1-.72.84,2.718,2.718,0,0,1-.9.45,3.088,3.088,0,0,1-.81.135v2.61a3.088,3.088,0,0,1,.81.135,3.078,3.078,0,0,1,.9.42,2.522,2.522,0,0,1,.72.765,2.165,2.165,0,0,1,.3,1.17v5.82a3.88,3.88,0,0,0,.39,1.785,4.25,4.25,0,0,0,.945,1.26,4.016,4.016,0,0,0,1.2.75,3.189,3.189,0,0,0,1.155.255H9.99V31.07H8.37a1.524,1.524,0,0,1-.855-.21,1.55,1.55,0,0,1-.495-.525,1.827,1.827,0,0,1-.225-.7,6.314,6.314,0,0,1-.045-.72v-4.8A3.2,3.2,0,0,0,6.4,22.535a3.366,3.366,0,0,0-.81-.99,3.046,3.046,0,0,0-.975-.54,4.048,4.048,0,0,0-.84-.2v-.09a4.581,4.581,0,0,0,.84-.18,2.819,2.819,0,0,0,.975-.525,3.183,3.183,0,0,0,.81-1.05A3.938,3.938,0,0,0,6.75,17.18V12.62a6.548,6.548,0,0,1,.045-.75,1.827,1.827,0,0,1,.225-.705,1.55,1.55,0,0,1,.495-.525,1.524,1.524,0,0,1,.855-.21Z" transform="translate(1006 369)" fill="#fff"/>
    <path id="Path_97-3" data-name="Path 97" d="M9.99,10.43V7.07H6.18a3.189,3.189,0,0,0-1.155.255,4.016,4.016,0,0,0-1.2.75,4.25,4.25,0,0,0-.945,1.26,3.88,3.88,0,0,0-.39,1.785v5.64a2.532,2.532,0,0,1-.3,1.275,2.712,2.712,0,0,1-.72.84,2.718,2.718,0,0,1-.9.45,3.088,3.088,0,0,1-.81.135v2.61a3.088,3.088,0,0,1,.81.135,3.078,3.078,0,0,1,.9.42,2.522,2.522,0,0,1,.72.765,2.165,2.165,0,0,1,.3,1.17v5.82a3.88,3.88,0,0,0,.39,1.785,4.25,4.25,0,0,0,.945,1.26,4.016,4.016,0,0,0,1.2.75,3.189,3.189,0,0,0,1.155.255H9.99V31.07H8.37a1.524,1.524,0,0,1-.855-.21,1.55,1.55,0,0,1-.495-.525,1.827,1.827,0,0,1-.225-.7,6.314,6.314,0,0,1-.045-.72v-4.8A3.2,3.2,0,0,0,6.4,22.535a3.366,3.366,0,0,0-.81-.99,3.046,3.046,0,0,0-.975-.54,4.048,4.048,0,0,0-.84-.2v-.09a4.581,4.581,0,0,0,.84-.18,2.819,2.819,0,0,0,.975-.525,3.183,3.183,0,0,0,.81-1.05A3.938,3.938,0,0,0,6.75,17.18V12.62a6.548,6.548,0,0,1,.045-.75,1.827,1.827,0,0,1,.225-.705,1.55,1.55,0,0,1,.495-.525,1.524,1.524,0,0,1,.855-.21Z" transform="translate(1039 369)" fill="#fff"/>
    <path id="Path_97-4" data-name="Path 97" d="M9.99,10.43V7.07H6.18a3.189,3.189,0,0,0-1.155.255,4.016,4.016,0,0,0-1.2.75,4.25,4.25,0,0,0-.945,1.26,3.88,3.88,0,0,0-.39,1.785v5.64a2.532,2.532,0,0,1-.3,1.275,2.712,2.712,0,0,1-.72.84,2.718,2.718,0,0,1-.9.45,3.088,3.088,0,0,1-.81.135v2.61a3.088,3.088,0,0,1,.81.135,3.078,3.078,0,0,1,.9.42,2.522,2.522,0,0,1,.72.765,2.165,2.165,0,0,1,.3,1.17v5.82a3.88,3.88,0,0,0,.39,1.785,4.25,4.25,0,0,0,.945,1.26,4.016,4.016,0,0,0,1.2.75,3.189,3.189,0,0,0,1.155.255H9.99V31.07H8.37a1.524,1.524,0,0,1-.855-.21,1.55,1.55,0,0,1-.495-.525,1.827,1.827,0,0,1-.225-.7,6.314,6.314,0,0,1-.045-.72v-4.8A3.2,3.2,0,0,0,6.4,22.535a3.366,3.366,0,0,0-.81-.99,3.046,3.046,0,0,0-.975-.54,4.048,4.048,0,0,0-.84-.2v-.09a4.581,4.581,0,0,0,.84-.18,2.819,2.819,0,0,0,.975-.525,3.183,3.183,0,0,0,.81-1.05A3.938,3.938,0,0,0,6.75,17.18V12.62a6.548,6.548,0,0,1,.045-.75,1.827,1.827,0,0,1,.225-.705,1.55,1.55,0,0,1,.495-.525,1.524,1.524,0,0,1,.855-.21Z" transform="translate(1204 369)" fill="#fff"/>
    <path id="Path_97-5" data-name="Path 97" d="M9.99,10.43V7.07H6.18a3.189,3.189,0,0,0-1.155.255,4.016,4.016,0,0,0-1.2.75,4.25,4.25,0,0,0-.945,1.26,3.88,3.88,0,0,0-.39,1.785v5.64a2.532,2.532,0,0,1-.3,1.275,2.712,2.712,0,0,1-.72.84,2.718,2.718,0,0,1-.9.45,3.088,3.088,0,0,1-.81.135v2.61a3.088,3.088,0,0,1,.81.135,3.078,3.078,0,0,1,.9.42,2.522,2.522,0,0,1,.72.765,2.165,2.165,0,0,1,.3,1.17v5.82a3.88,3.88,0,0,0,.39,1.785,4.25,4.25,0,0,0,.945,1.26,4.016,4.016,0,0,0,1.2.75,3.189,3.189,0,0,0,1.155.255H9.99V31.07H8.37a1.524,1.524,0,0,1-.855-.21,1.55,1.55,0,0,1-.495-.525,1.827,1.827,0,0,1-.225-.7,6.314,6.314,0,0,1-.045-.72v-4.8A3.2,3.2,0,0,0,6.4,22.535a3.366,3.366,0,0,0-.81-.99,3.046,3.046,0,0,0-.975-.54,4.048,4.048,0,0,0-.84-.2v-.09a4.581,4.581,0,0,0,.84-.18,2.819,2.819,0,0,0,.975-.525,3.183,3.183,0,0,0,.81-1.05A3.938,3.938,0,0,0,6.75,17.18V12.62a6.548,6.548,0,0,1,.045-.75,1.827,1.827,0,0,1,.225-.705,1.55,1.55,0,0,1,.495-.525,1.524,1.524,0,0,1,.855-.21Z" transform="translate(1237 369)" fill="#fff"/>
    <path id="Path_97-6" data-name="Path 97" d="M9.99,10.43V7.07H6.18a3.189,3.189,0,0,0-1.155.255,4.016,4.016,0,0,0-1.2.75,4.25,4.25,0,0,0-.945,1.26,3.88,3.88,0,0,0-.39,1.785v5.64a2.532,2.532,0,0,1-.3,1.275,2.712,2.712,0,0,1-.72.84,2.718,2.718,0,0,1-.9.45,3.088,3.088,0,0,1-.81.135v2.61a3.088,3.088,0,0,1,.81.135,3.078,3.078,0,0,1,.9.42,2.522,2.522,0,0,1,.72.765,2.165,2.165,0,0,1,.3,1.17v5.82a3.88,3.88,0,0,0,.39,1.785,4.25,4.25,0,0,0,.945,1.26,4.016,4.016,0,0,0,1.2.75,3.189,3.189,0,0,0,1.155.255H9.99V31.07H8.37a1.524,1.524,0,0,1-.855-.21,1.55,1.55,0,0,1-.495-.525,1.827,1.827,0,0,1-.225-.7,6.314,6.314,0,0,1-.045-.72v-4.8A3.2,3.2,0,0,0,6.4,22.535a3.366,3.366,0,0,0-.81-.99,3.046,3.046,0,0,0-.975-.54,4.048,4.048,0,0,0-.84-.2v-.09a4.581,4.581,0,0,0,.84-.18,2.819,2.819,0,0,0,.975-.525,3.183,3.183,0,0,0,.81-1.05A3.938,3.938,0,0,0,6.75,17.18V12.62a6.548,6.548,0,0,1,.045-.75,1.827,1.827,0,0,1,.225-.705,1.55,1.55,0,0,1,.495-.525,1.524,1.524,0,0,1,.855-.21Z" transform="translate(1270 369)" fill="#fff"/>
    <path id="Path_97-7" data-name="Path 97" d="M9.99,10.43V7.07H6.18a3.189,3.189,0,0,0-1.155.255,4.016,4.016,0,0,0-1.2.75,4.25,4.25,0,0,0-.945,1.26,3.88,3.88,0,0,0-.39,1.785v5.64a2.532,2.532,0,0,1-.3,1.275,2.712,2.712,0,0,1-.72.84,2.718,2.718,0,0,1-.9.45,3.088,3.088,0,0,1-.81.135v2.61a3.088,3.088,0,0,1,.81.135,3.078,3.078,0,0,1,.9.42,2.522,2.522,0,0,1,.72.765,2.165,2.165,0,0,1,.3,1.17v5.82a3.88,3.88,0,0,0,.39,1.785,4.25,4.25,0,0,0,.945,1.26,4.016,4.016,0,0,0,1.2.75,3.189,3.189,0,0,0,1.155.255H9.99V31.07H8.37a1.524,1.524,0,0,1-.855-.21,1.55,1.55,0,0,1-.495-.525,1.827,1.827,0,0,1-.225-.7,6.314,6.314,0,0,1-.045-.72v-4.8A3.2,3.2,0,0,0,6.4,22.535a3.366,3.366,0,0,0-.81-.99,3.046,3.046,0,0,0-.975-.54,4.048,4.048,0,0,0-.84-.2v-.09a4.581,4.581,0,0,0,.84-.18,2.819,2.819,0,0,0,.975-.525,3.183,3.183,0,0,0,.81-1.05A3.938,3.938,0,0,0,6.75,17.18V12.62a6.548,6.548,0,0,1,.045-.75,1.827,1.827,0,0,1,.225-.705,1.55,1.55,0,0,1,.495-.525,1.524,1.524,0,0,1,.855-.21Z" transform="translate(1435 369)" fill="#fff"/>
    <path id="Path_97-8" data-name="Path 97" d="M9.99,10.43V7.07H6.18a3.189,3.189,0,0,0-1.155.255,4.016,4.016,0,0,0-1.2.75,4.25,4.25,0,0,0-.945,1.26,3.88,3.88,0,0,0-.39,1.785v5.64a2.532,2.532,0,0,1-.3,1.275,2.712,2.712,0,0,1-.72.84,2.718,2.718,0,0,1-.9.45,3.088,3.088,0,0,1-.81.135v2.61a3.088,3.088,0,0,1,.81.135,3.078,3.078,0,0,1,.9.42,2.522,2.522,0,0,1,.72.765,2.165,2.165,0,0,1,.3,1.17v5.82a3.88,3.88,0,0,0,.39,1.785,4.25,4.25,0,0,0,.945,1.26,4.016,4.016,0,0,0,1.2.75,3.189,3.189,0,0,0,1.155.255H9.99V31.07H8.37a1.524,1.524,0,0,1-.855-.21,1.55,1.55,0,0,1-.495-.525,1.827,1.827,0,0,1-.225-.7,6.314,6.314,0,0,1-.045-.72v-4.8A3.2,3.2,0,0,0,6.4,22.535a3.366,3.366,0,0,0-.81-.99,3.046,3.046,0,0,0-.975-.54,4.048,4.048,0,0,0-.84-.2v-.09a4.581,4.581,0,0,0,.84-.18,2.819,2.819,0,0,0,.975-.525,3.183,3.183,0,0,0,.81-1.05A3.938,3.938,0,0,0,6.75,17.18V12.62a6.548,6.548,0,0,1,.045-.75,1.827,1.827,0,0,1,.225-.705,1.55,1.55,0,0,1,.495-.525,1.524,1.524,0,0,1,.855-.21Z" transform="translate(1468 369)" fill="#fff"/>
    <path id="Path_97-9" data-name="Path 97" d="M9.99,10.43V7.07H6.18a3.189,3.189,0,0,0-1.155.255,4.016,4.016,0,0,0-1.2.75,4.25,4.25,0,0,0-.945,1.26,3.88,3.88,0,0,0-.39,1.785v5.64a2.532,2.532,0,0,1-.3,1.275,2.712,2.712,0,0,1-.72.84,2.718,2.718,0,0,1-.9.45,3.088,3.088,0,0,1-.81.135v2.61a3.088,3.088,0,0,1,.81.135,3.078,3.078,0,0,1,.9.42,2.522,2.522,0,0,1,.72.765,2.165,2.165,0,0,1,.3,1.17v5.82a3.88,3.88,0,0,0,.39,1.785,4.25,4.25,0,0,0,.945,1.26,4.016,4.016,0,0,0,1.2.75,3.189,3.189,0,0,0,1.155.255H9.99V31.07H8.37a1.524,1.524,0,0,1-.855-.21,1.55,1.55,0,0,1-.495-.525,1.827,1.827,0,0,1-.225-.7,6.314,6.314,0,0,1-.045-.72v-4.8A3.2,3.2,0,0,0,6.4,22.535a3.366,3.366,0,0,0-.81-.99,3.046,3.046,0,0,0-.975-.54,4.048,4.048,0,0,0-.84-.2v-.09a4.581,4.581,0,0,0,.84-.18,2.819,2.819,0,0,0,.975-.525,3.183,3.183,0,0,0,.81-1.05A3.938,3.938,0,0,0,6.75,17.18V12.62a6.548,6.548,0,0,1,.045-.75,1.827,1.827,0,0,1,.225-.705,1.55,1.55,0,0,1,.495-.525,1.524,1.524,0,0,1,.855-.21Z" transform="translate(1501 369)" fill="#fff"/>
    <path id="Path_97-10" data-name="Path 97" d="M9.99,10.43V7.07H6.18a3.189,3.189,0,0,0-1.155.255,4.016,4.016,0,0,0-1.2.75,4.25,4.25,0,0,0-.945,1.26,3.88,3.88,0,0,0-.39,1.785v5.64a2.532,2.532,0,0,1-.3,1.275,2.712,2.712,0,0,1-.72.84,2.718,2.718,0,0,1-.9.45,3.088,3.088,0,0,1-.81.135v2.61a3.088,3.088,0,0,1,.81.135,3.078,3.078,0,0,1,.9.42,2.522,2.522,0,0,1,.72.765,2.165,2.165,0,0,1,.3,1.17v5.82a3.88,3.88,0,0,0,.39,1.785,4.25,4.25,0,0,0,.945,1.26,4.016,4.016,0,0,0,1.2.75,3.189,3.189,0,0,0,1.155.255H9.99V31.07H8.37a1.524,1.524,0,0,1-.855-.21,1.55,1.55,0,0,1-.495-.525,1.827,1.827,0,0,1-.225-.7,6.314,6.314,0,0,1-.045-.72v-4.8A3.2,3.2,0,0,0,6.4,22.535a3.366,3.366,0,0,0-.81-.99,3.046,3.046,0,0,0-.975-.54,4.048,4.048,0,0,0-.84-.2v-.09a4.581,4.581,0,0,0,.84-.18,2.819,2.819,0,0,0,.975-.525,3.183,3.183,0,0,0,.81-1.05A3.938,3.938,0,0,0,6.75,17.18V12.62a6.548,6.548,0,0,1,.045-.75,1.827,1.827,0,0,1,.225-.705,1.55,1.55,0,0,1,.495-.525,1.524,1.524,0,0,1,.855-.21Z" transform="translate(973 423)" fill="#fff"/>
    <path id="Path_97-11" data-name="Path 97" d="M9.99,10.43V7.07H6.18a3.189,3.189,0,0,0-1.155.255,4.016,4.016,0,0,0-1.2.75,4.25,4.25,0,0,0-.945,1.26,3.88,3.88,0,0,0-.39,1.785v5.64a2.532,2.532,0,0,1-.3,1.275,2.712,2.712,0,0,1-.72.84,2.718,2.718,0,0,1-.9.45,3.088,3.088,0,0,1-.81.135v2.61a3.088,3.088,0,0,1,.81.135,3.078,3.078,0,0,1,.9.42,2.522,2.522,0,0,1,.72.765,2.165,2.165,0,0,1,.3,1.17v5.82a3.88,3.88,0,0,0,.39,1.785,4.25,4.25,0,0,0,.945,1.26,4.016,4.016,0,0,0,1.2.75,3.189,3.189,0,0,0,1.155.255H9.99V31.07H8.37a1.524,1.524,0,0,1-.855-.21,1.55,1.55,0,0,1-.495-.525,1.827,1.827,0,0,1-.225-.7,6.314,6.314,0,0,1-.045-.72v-4.8A3.2,3.2,0,0,0,6.4,22.535a3.366,3.366,0,0,0-.81-.99,3.046,3.046,0,0,0-.975-.54,4.048,4.048,0,0,0-.84-.2v-.09a4.581,4.581,0,0,0,.84-.18,2.819,2.819,0,0,0,.975-.525,3.183,3.183,0,0,0,.81-1.05A3.938,3.938,0,0,0,6.75,17.18V12.62a6.548,6.548,0,0,1,.045-.75,1.827,1.827,0,0,1,.225-.705,1.55,1.55,0,0,1,.495-.525,1.524,1.524,0,0,1,.855-.21Z" transform="translate(1006 423)" fill="#fff"/>
    <path id="Path_97-12" data-name="Path 97" d="M9.99,10.43V7.07H6.18a3.189,3.189,0,0,0-1.155.255,4.016,4.016,0,0,0-1.2.75,4.25,4.25,0,0,0-.945,1.26,3.88,3.88,0,0,0-.39,1.785v5.64a2.532,2.532,0,0,1-.3,1.275,2.712,2.712,0,0,1-.72.84,2.718,2.718,0,0,1-.9.45,3.088,3.088,0,0,1-.81.135v2.61a3.088,3.088,0,0,1,.81.135,3.078,3.078,0,0,1,.9.42,2.522,2.522,0,0,1,.72.765,2.165,2.165,0,0,1,.3,1.17v5.82a3.88,3.88,0,0,0,.39,1.785,4.25,4.25,0,0,0,.945,1.26,4.016,4.016,0,0,0,1.2.75,3.189,3.189,0,0,0,1.155.255H9.99V31.07H8.37a1.524,1.524,0,0,1-.855-.21,1.55,1.55,0,0,1-.495-.525,1.827,1.827,0,0,1-.225-.7,6.314,6.314,0,0,1-.045-.72v-4.8A3.2,3.2,0,0,0,6.4,22.535a3.366,3.366,0,0,0-.81-.99,3.046,3.046,0,0,0-.975-.54,4.048,4.048,0,0,0-.84-.2v-.09a4.581,4.581,0,0,0,.84-.18,2.819,2.819,0,0,0,.975-.525,3.183,3.183,0,0,0,.81-1.05A3.938,3.938,0,0,0,6.75,17.18V12.62a6.548,6.548,0,0,1,.045-.75,1.827,1.827,0,0,1,.225-.705,1.55,1.55,0,0,1,.495-.525,1.524,1.524,0,0,1,.855-.21Z" transform="translate(1039 423)" fill="#fff"/>
    <path id="Path_97-13" data-name="Path 97" d="M9.99,10.43V7.07H6.18a3.189,3.189,0,0,0-1.155.255,4.016,4.016,0,0,0-1.2.75,4.25,4.25,0,0,0-.945,1.26,3.88,3.88,0,0,0-.39,1.785v5.64a2.532,2.532,0,0,1-.3,1.275,2.712,2.712,0,0,1-.72.84,2.718,2.718,0,0,1-.9.45,3.088,3.088,0,0,1-.81.135v2.61a3.088,3.088,0,0,1,.81.135,3.078,3.078,0,0,1,.9.42,2.522,2.522,0,0,1,.72.765,2.165,2.165,0,0,1,.3,1.17v5.82a3.88,3.88,0,0,0,.39,1.785,4.25,4.25,0,0,0,.945,1.26,4.016,4.016,0,0,0,1.2.75,3.189,3.189,0,0,0,1.155.255H9.99V31.07H8.37a1.524,1.524,0,0,1-.855-.21,1.55,1.55,0,0,1-.495-.525,1.827,1.827,0,0,1-.225-.7,6.314,6.314,0,0,1-.045-.72v-4.8A3.2,3.2,0,0,0,6.4,22.535a3.366,3.366,0,0,0-.81-.99,3.046,3.046,0,0,0-.975-.54,4.048,4.048,0,0,0-.84-.2v-.09a4.581,4.581,0,0,0,.84-.18,2.819,2.819,0,0,0,.975-.525,3.183,3.183,0,0,0,.81-1.05A3.938,3.938,0,0,0,6.75,17.18V12.62a6.548,6.548,0,0,1,.045-.75,1.827,1.827,0,0,1,.225-.705,1.55,1.55,0,0,1,.495-.525,1.524,1.524,0,0,1,.855-.21Z" transform="translate(1072 423)" fill="#fff"/>
    <path id="Path_97-14" data-name="Path 97" d="M9.99,10.43V7.07H6.18a3.189,3.189,0,0,0-1.155.255,4.016,4.016,0,0,0-1.2.75,4.25,4.25,0,0,0-.945,1.26,3.88,3.88,0,0,0-.39,1.785v5.64a2.532,2.532,0,0,1-.3,1.275,2.712,2.712,0,0,1-.72.84,2.718,2.718,0,0,1-.9.45,3.088,3.088,0,0,1-.81.135v2.61a3.088,3.088,0,0,1,.81.135,3.078,3.078,0,0,1,.9.42,2.522,2.522,0,0,1,.72.765,2.165,2.165,0,0,1,.3,1.17v5.82a3.88,3.88,0,0,0,.39,1.785,4.25,4.25,0,0,0,.945,1.26,4.016,4.016,0,0,0,1.2.75,3.189,3.189,0,0,0,1.155.255H9.99V31.07H8.37a1.524,1.524,0,0,1-.855-.21,1.55,1.55,0,0,1-.495-.525,1.827,1.827,0,0,1-.225-.7,6.314,6.314,0,0,1-.045-.72v-4.8A3.2,3.2,0,0,0,6.4,22.535a3.366,3.366,0,0,0-.81-.99,3.046,3.046,0,0,0-.975-.54,4.048,4.048,0,0,0-.84-.2v-.09a4.581,4.581,0,0,0,.84-.18,2.819,2.819,0,0,0,.975-.525,3.183,3.183,0,0,0,.81-1.05A3.938,3.938,0,0,0,6.75,17.18V12.62a6.548,6.548,0,0,1,.045-.75,1.827,1.827,0,0,1,.225-.705,1.55,1.55,0,0,1,.495-.525,1.524,1.524,0,0,1,.855-.21Z" transform="translate(1171 423)" fill="#fff"/>
    <path id="Path_97-15" data-name="Path 97" d="M9.99,10.43V7.07H6.18a3.189,3.189,0,0,0-1.155.255,4.016,4.016,0,0,0-1.2.75,4.25,4.25,0,0,0-.945,1.26,3.88,3.88,0,0,0-.39,1.785v5.64a2.532,2.532,0,0,1-.3,1.275,2.712,2.712,0,0,1-.72.84,2.718,2.718,0,0,1-.9.45,3.088,3.088,0,0,1-.81.135v2.61a3.088,3.088,0,0,1,.81.135,3.078,3.078,0,0,1,.9.42,2.522,2.522,0,0,1,.72.765,2.165,2.165,0,0,1,.3,1.17v5.82a3.88,3.88,0,0,0,.39,1.785,4.25,4.25,0,0,0,.945,1.26,4.016,4.016,0,0,0,1.2.75,3.189,3.189,0,0,0,1.155.255H9.99V31.07H8.37a1.524,1.524,0,0,1-.855-.21,1.55,1.55,0,0,1-.495-.525,1.827,1.827,0,0,1-.225-.7,6.314,6.314,0,0,1-.045-.72v-4.8A3.2,3.2,0,0,0,6.4,22.535a3.366,3.366,0,0,0-.81-.99,3.046,3.046,0,0,0-.975-.54,4.048,4.048,0,0,0-.84-.2v-.09a4.581,4.581,0,0,0,.84-.18,2.819,2.819,0,0,0,.975-.525,3.183,3.183,0,0,0,.81-1.05A3.938,3.938,0,0,0,6.75,17.18V12.62a6.548,6.548,0,0,1,.045-.75,1.827,1.827,0,0,1,.225-.705,1.55,1.55,0,0,1,.495-.525,1.524,1.524,0,0,1,.855-.21Z" transform="translate(1204 423)" fill="#fff"/>
    <path id="Path_97-16" data-name="Path 97" d="M9.99,10.43V7.07H6.18a3.189,3.189,0,0,0-1.155.255,4.016,4.016,0,0,0-1.2.75,4.25,4.25,0,0,0-.945,1.26,3.88,3.88,0,0,0-.39,1.785v5.64a2.532,2.532,0,0,1-.3,1.275,2.712,2.712,0,0,1-.72.84,2.718,2.718,0,0,1-.9.45,3.088,3.088,0,0,1-.81.135v2.61a3.088,3.088,0,0,1,.81.135,3.078,3.078,0,0,1,.9.42,2.522,2.522,0,0,1,.72.765,2.165,2.165,0,0,1,.3,1.17v5.82a3.88,3.88,0,0,0,.39,1.785,4.25,4.25,0,0,0,.945,1.26,4.016,4.016,0,0,0,1.2.75,3.189,3.189,0,0,0,1.155.255H9.99V31.07H8.37a1.524,1.524,0,0,1-.855-.21,1.55,1.55,0,0,1-.495-.525,1.827,1.827,0,0,1-.225-.7,6.314,6.314,0,0,1-.045-.72v-4.8A3.2,3.2,0,0,0,6.4,22.535a3.366,3.366,0,0,0-.81-.99,3.046,3.046,0,0,0-.975-.54,4.048,4.048,0,0,0-.84-.2v-.09a4.581,4.581,0,0,0,.84-.18,2.819,2.819,0,0,0,.975-.525,3.183,3.183,0,0,0,.81-1.05A3.938,3.938,0,0,0,6.75,17.18V12.62a6.548,6.548,0,0,1,.045-.75,1.827,1.827,0,0,1,.225-.705,1.55,1.55,0,0,1,.495-.525,1.524,1.524,0,0,1,.855-.21Z" transform="translate(1237 423)" fill="#fff"/>
    <path id="Path_97-17" data-name="Path 97" d="M9.99,10.43V7.07H6.18a3.189,3.189,0,0,0-1.155.255,4.016,4.016,0,0,0-1.2.75,4.25,4.25,0,0,0-.945,1.26,3.88,3.88,0,0,0-.39,1.785v5.64a2.532,2.532,0,0,1-.3,1.275,2.712,2.712,0,0,1-.72.84,2.718,2.718,0,0,1-.9.45,3.088,3.088,0,0,1-.81.135v2.61a3.088,3.088,0,0,1,.81.135,3.078,3.078,0,0,1,.9.42,2.522,2.522,0,0,1,.72.765,2.165,2.165,0,0,1,.3,1.17v5.82a3.88,3.88,0,0,0,.39,1.785,4.25,4.25,0,0,0,.945,1.26,4.016,4.016,0,0,0,1.2.75,3.189,3.189,0,0,0,1.155.255H9.99V31.07H8.37a1.524,1.524,0,0,1-.855-.21,1.55,1.55,0,0,1-.495-.525,1.827,1.827,0,0,1-.225-.7,6.314,6.314,0,0,1-.045-.72v-4.8A3.2,3.2,0,0,0,6.4,22.535a3.366,3.366,0,0,0-.81-.99,3.046,3.046,0,0,0-.975-.54,4.048,4.048,0,0,0-.84-.2v-.09a4.581,4.581,0,0,0,.84-.18,2.819,2.819,0,0,0,.975-.525,3.183,3.183,0,0,0,.81-1.05A3.938,3.938,0,0,0,6.75,17.18V12.62a6.548,6.548,0,0,1,.045-.75,1.827,1.827,0,0,1,.225-.705,1.55,1.55,0,0,1,.495-.525,1.524,1.524,0,0,1,.855-.21Z" transform="translate(1270 423)" fill="#fff"/>
    <path id="Path_97-18" data-name="Path 97" d="M9.99,10.43V7.07H6.18a3.189,3.189,0,0,0-1.155.255,4.016,4.016,0,0,0-1.2.75,4.25,4.25,0,0,0-.945,1.26,3.88,3.88,0,0,0-.39,1.785v5.64a2.532,2.532,0,0,1-.3,1.275,2.712,2.712,0,0,1-.72.84,2.718,2.718,0,0,1-.9.45,3.088,3.088,0,0,1-.81.135v2.61a3.088,3.088,0,0,1,.81.135,3.078,3.078,0,0,1,.9.42,2.522,2.522,0,0,1,.72.765,2.165,2.165,0,0,1,.3,1.17v5.82a3.88,3.88,0,0,0,.39,1.785,4.25,4.25,0,0,0,.945,1.26,4.016,4.016,0,0,0,1.2.75,3.189,3.189,0,0,0,1.155.255H9.99V31.07H8.37a1.524,1.524,0,0,1-.855-.21,1.55,1.55,0,0,1-.495-.525,1.827,1.827,0,0,1-.225-.7,6.314,6.314,0,0,1-.045-.72v-4.8A3.2,3.2,0,0,0,6.4,22.535a3.366,3.366,0,0,0-.81-.99,3.046,3.046,0,0,0-.975-.54,4.048,4.048,0,0,0-.84-.2v-.09a4.581,4.581,0,0,0,.84-.18,2.819,2.819,0,0,0,.975-.525,3.183,3.183,0,0,0,.81-1.05A3.938,3.938,0,0,0,6.75,17.18V12.62a6.548,6.548,0,0,1,.045-.75,1.827,1.827,0,0,1,.225-.705,1.55,1.55,0,0,1,.495-.525,1.524,1.524,0,0,1,.855-.21Z" transform="translate(1303 423)" fill="#fff"/>
    <path id="Path_97-19" data-name="Path 97" d="M9.99,10.43V7.07H6.18a3.189,3.189,0,0,0-1.155.255,4.016,4.016,0,0,0-1.2.75,4.25,4.25,0,0,0-.945,1.26,3.88,3.88,0,0,0-.39,1.785v5.64a2.532,2.532,0,0,1-.3,1.275,2.712,2.712,0,0,1-.72.84,2.718,2.718,0,0,1-.9.45,3.088,3.088,0,0,1-.81.135v2.61a3.088,3.088,0,0,1,.81.135,3.078,3.078,0,0,1,.9.42,2.522,2.522,0,0,1,.72.765,2.165,2.165,0,0,1,.3,1.17v5.82a3.88,3.88,0,0,0,.39,1.785,4.25,4.25,0,0,0,.945,1.26,4.016,4.016,0,0,0,1.2.75,3.189,3.189,0,0,0,1.155.255H9.99V31.07H8.37a1.524,1.524,0,0,1-.855-.21,1.55,1.55,0,0,1-.495-.525,1.827,1.827,0,0,1-.225-.7,6.314,6.314,0,0,1-.045-.72v-4.8A3.2,3.2,0,0,0,6.4,22.535a3.366,3.366,0,0,0-.81-.99,3.046,3.046,0,0,0-.975-.54,4.048,4.048,0,0,0-.84-.2v-.09a4.581,4.581,0,0,0,.84-.18,2.819,2.819,0,0,0,.975-.525,3.183,3.183,0,0,0,.81-1.05A3.938,3.938,0,0,0,6.75,17.18V12.62a6.548,6.548,0,0,1,.045-.75,1.827,1.827,0,0,1,.225-.705,1.55,1.55,0,0,1,.495-.525,1.524,1.524,0,0,1,.855-.21Z" transform="translate(1402 423)" fill="#fff"/>
    <path id="Path_97-20" data-name="Path 97" d="M9.99,10.43V7.07H6.18a3.189,3.189,0,0,0-1.155.255,4.016,4.016,0,0,0-1.2.75,4.25,4.25,0,0,0-.945,1.26,3.88,3.88,0,0,0-.39,1.785v5.64a2.532,2.532,0,0,1-.3,1.275,2.712,2.712,0,0,1-.72.84,2.718,2.718,0,0,1-.9.45,3.088,3.088,0,0,1-.81.135v2.61a3.088,3.088,0,0,1,.81.135,3.078,3.078,0,0,1,.9.42,2.522,2.522,0,0,1,.72.765,2.165,2.165,0,0,1,.3,1.17v5.82a3.88,3.88,0,0,0,.39,1.785,4.25,4.25,0,0,0,.945,1.26,4.016,4.016,0,0,0,1.2.75,3.189,3.189,0,0,0,1.155.255H9.99V31.07H8.37a1.524,1.524,0,0,1-.855-.21,1.55,1.55,0,0,1-.495-.525,1.827,1.827,0,0,1-.225-.7,6.314,6.314,0,0,1-.045-.72v-4.8A3.2,3.2,0,0,0,6.4,22.535a3.366,3.366,0,0,0-.81-.99,3.046,3.046,0,0,0-.975-.54,4.048,4.048,0,0,0-.84-.2v-.09a4.581,4.581,0,0,0,.84-.18,2.819,2.819,0,0,0,.975-.525,3.183,3.183,0,0,0,.81-1.05A3.938,3.938,0,0,0,6.75,17.18V12.62a6.548,6.548,0,0,1,.045-.75,1.827,1.827,0,0,1,.225-.705,1.55,1.55,0,0,1,.495-.525,1.524,1.524,0,0,1,.855-.21Z" transform="translate(1435 423)" fill="#fff"/>
    <path id="Path_97-21" data-name="Path 97" d="M9.99,10.43V7.07H6.18a3.189,3.189,0,0,0-1.155.255,4.016,4.016,0,0,0-1.2.75,4.25,4.25,0,0,0-.945,1.26,3.88,3.88,0,0,0-.39,1.785v5.64a2.532,2.532,0,0,1-.3,1.275,2.712,2.712,0,0,1-.72.84,2.718,2.718,0,0,1-.9.45,3.088,3.088,0,0,1-.81.135v2.61a3.088,3.088,0,0,1,.81.135,3.078,3.078,0,0,1,.9.42,2.522,2.522,0,0,1,.72.765,2.165,2.165,0,0,1,.3,1.17v5.82a3.88,3.88,0,0,0,.39,1.785,4.25,4.25,0,0,0,.945,1.26,4.016,4.016,0,0,0,1.2.75,3.189,3.189,0,0,0,1.155.255H9.99V31.07H8.37a1.524,1.524,0,0,1-.855-.21,1.55,1.55,0,0,1-.495-.525,1.827,1.827,0,0,1-.225-.7,6.314,6.314,0,0,1-.045-.72v-4.8A3.2,3.2,0,0,0,6.4,22.535a3.366,3.366,0,0,0-.81-.99,3.046,3.046,0,0,0-.975-.54,4.048,4.048,0,0,0-.84-.2v-.09a4.581,4.581,0,0,0,.84-.18,2.819,2.819,0,0,0,.975-.525,3.183,3.183,0,0,0,.81-1.05A3.938,3.938,0,0,0,6.75,17.18V12.62a6.548,6.548,0,0,1,.045-.75,1.827,1.827,0,0,1,.225-.705,1.55,1.55,0,0,1,.495-.525,1.524,1.524,0,0,1,.855-.21Z" transform="translate(1468 423)" fill="#fff"/>
    <path id="Path_97-22" data-name="Path 97" d="M9.99,10.43V7.07H6.18a3.189,3.189,0,0,0-1.155.255,4.016,4.016,0,0,0-1.2.75,4.25,4.25,0,0,0-.945,1.26,3.88,3.88,0,0,0-.39,1.785v5.64a2.532,2.532,0,0,1-.3,1.275,2.712,2.712,0,0,1-.72.84,2.718,2.718,0,0,1-.9.45,3.088,3.088,0,0,1-.81.135v2.61a3.088,3.088,0,0,1,.81.135,3.078,3.078,0,0,1,.9.42,2.522,2.522,0,0,1,.72.765,2.165,2.165,0,0,1,.3,1.17v5.82a3.88,3.88,0,0,0,.39,1.785,4.25,4.25,0,0,0,.945,1.26,4.016,4.016,0,0,0,1.2.75,3.189,3.189,0,0,0,1.155.255H9.99V31.07H8.37a1.524,1.524,0,0,1-.855-.21,1.55,1.55,0,0,1-.495-.525,1.827,1.827,0,0,1-.225-.7,6.314,6.314,0,0,1-.045-.72v-4.8A3.2,3.2,0,0,0,6.4,22.535a3.366,3.366,0,0,0-.81-.99,3.046,3.046,0,0,0-.975-.54,4.048,4.048,0,0,0-.84-.2v-.09a4.581,4.581,0,0,0,.84-.18,2.819,2.819,0,0,0,.975-.525,3.183,3.183,0,0,0,.81-1.05A3.938,3.938,0,0,0,6.75,17.18V12.62a6.548,6.548,0,0,1,.045-.75,1.827,1.827,0,0,1,.225-.705,1.55,1.55,0,0,1,.495-.525,1.524,1.524,0,0,1,.855-.21Z" transform="translate(1501 423)" fill="#fff"/>
    <path id="Path_97-23" data-name="Path 97" d="M9.99,10.43V7.07H6.18a3.189,3.189,0,0,0-1.155.255,4.016,4.016,0,0,0-1.2.75,4.25,4.25,0,0,0-.945,1.26,3.88,3.88,0,0,0-.39,1.785v5.64a2.532,2.532,0,0,1-.3,1.275,2.712,2.712,0,0,1-.72.84,2.718,2.718,0,0,1-.9.45,3.088,3.088,0,0,1-.81.135v2.61a3.088,3.088,0,0,1,.81.135,3.078,3.078,0,0,1,.9.42,2.522,2.522,0,0,1,.72.765,2.165,2.165,0,0,1,.3,1.17v5.82a3.88,3.88,0,0,0,.39,1.785,4.25,4.25,0,0,0,.945,1.26,4.016,4.016,0,0,0,1.2.75,3.189,3.189,0,0,0,1.155.255H9.99V31.07H8.37a1.524,1.524,0,0,1-.855-.21,1.55,1.55,0,0,1-.495-.525,1.827,1.827,0,0,1-.225-.7,6.314,6.314,0,0,1-.045-.72v-4.8A3.2,3.2,0,0,0,6.4,22.535a3.366,3.366,0,0,0-.81-.99,3.046,3.046,0,0,0-.975-.54,4.048,4.048,0,0,0-.84-.2v-.09a4.581,4.581,0,0,0,.84-.18,2.819,2.819,0,0,0,.975-.525,3.183,3.183,0,0,0,.81-1.05A3.938,3.938,0,0,0,6.75,17.18V12.62a6.548,6.548,0,0,1,.045-.75,1.827,1.827,0,0,1,.225-.705,1.55,1.55,0,0,1,.495-.525,1.524,1.524,0,0,1,.855-.21Z" transform="translate(1006 477)" fill="#fff"/>
    <path id="Path_97-24" data-name="Path 97" d="M9.99,10.43V7.07H6.18a3.189,3.189,0,0,0-1.155.255,4.016,4.016,0,0,0-1.2.75,4.25,4.25,0,0,0-.945,1.26,3.88,3.88,0,0,0-.39,1.785v5.64a2.532,2.532,0,0,1-.3,1.275,2.712,2.712,0,0,1-.72.84,2.718,2.718,0,0,1-.9.45,3.088,3.088,0,0,1-.81.135v2.61a3.088,3.088,0,0,1,.81.135,3.078,3.078,0,0,1,.9.42,2.522,2.522,0,0,1,.72.765,2.165,2.165,0,0,1,.3,1.17v5.82a3.88,3.88,0,0,0,.39,1.785,4.25,4.25,0,0,0,.945,1.26,4.016,4.016,0,0,0,1.2.75,3.189,3.189,0,0,0,1.155.255H9.99V31.07H8.37a1.524,1.524,0,0,1-.855-.21,1.55,1.55,0,0,1-.495-.525,1.827,1.827,0,0,1-.225-.7,6.314,6.314,0,0,1-.045-.72v-4.8A3.2,3.2,0,0,0,6.4,22.535a3.366,3.366,0,0,0-.81-.99,3.046,3.046,0,0,0-.975-.54,4.048,4.048,0,0,0-.84-.2v-.09a4.581,4.581,0,0,0,.84-.18,2.819,2.819,0,0,0,.975-.525,3.183,3.183,0,0,0,.81-1.05A3.938,3.938,0,0,0,6.75,17.18V12.62a6.548,6.548,0,0,1,.045-.75,1.827,1.827,0,0,1,.225-.705,1.55,1.55,0,0,1,.495-.525,1.524,1.524,0,0,1,.855-.21Z" transform="translate(1039 477)" fill="#fff"/>
    <path id="Path_97-25" data-name="Path 97" d="M9.99,10.43V7.07H6.18a3.189,3.189,0,0,0-1.155.255,4.016,4.016,0,0,0-1.2.75,4.25,4.25,0,0,0-.945,1.26,3.88,3.88,0,0,0-.39,1.785v5.64a2.532,2.532,0,0,1-.3,1.275,2.712,2.712,0,0,1-.72.84,2.718,2.718,0,0,1-.9.45,3.088,3.088,0,0,1-.81.135v2.61a3.088,3.088,0,0,1,.81.135,3.078,3.078,0,0,1,.9.42,2.522,2.522,0,0,1,.72.765,2.165,2.165,0,0,1,.3,1.17v5.82a3.88,3.88,0,0,0,.39,1.785,4.25,4.25,0,0,0,.945,1.26,4.016,4.016,0,0,0,1.2.75,3.189,3.189,0,0,0,1.155.255H9.99V31.07H8.37a1.524,1.524,0,0,1-.855-.21,1.55,1.55,0,0,1-.495-.525,1.827,1.827,0,0,1-.225-.7,6.314,6.314,0,0,1-.045-.72v-4.8A3.2,3.2,0,0,0,6.4,22.535a3.366,3.366,0,0,0-.81-.99,3.046,3.046,0,0,0-.975-.54,4.048,4.048,0,0,0-.84-.2v-.09a4.581,4.581,0,0,0,.84-.18,2.819,2.819,0,0,0,.975-.525,3.183,3.183,0,0,0,.81-1.05A3.938,3.938,0,0,0,6.75,17.18V12.62a6.548,6.548,0,0,1,.045-.75,1.827,1.827,0,0,1,.225-.705,1.55,1.55,0,0,1,.495-.525,1.524,1.524,0,0,1,.855-.21Z" transform="translate(1072 477)" fill="#fff"/>
    <path id="Path_97-26" data-name="Path 97" d="M9.99,10.43V7.07H6.18a3.189,3.189,0,0,0-1.155.255,4.016,4.016,0,0,0-1.2.75,4.25,4.25,0,0,0-.945,1.26,3.88,3.88,0,0,0-.39,1.785v5.64a2.532,2.532,0,0,1-.3,1.275,2.712,2.712,0,0,1-.72.84,2.718,2.718,0,0,1-.9.45,3.088,3.088,0,0,1-.81.135v2.61a3.088,3.088,0,0,1,.81.135,3.078,3.078,0,0,1,.9.42,2.522,2.522,0,0,1,.72.765,2.165,2.165,0,0,1,.3,1.17v5.82a3.88,3.88,0,0,0,.39,1.785,4.25,4.25,0,0,0,.945,1.26,4.016,4.016,0,0,0,1.2.75,3.189,3.189,0,0,0,1.155.255H9.99V31.07H8.37a1.524,1.524,0,0,1-.855-.21,1.55,1.55,0,0,1-.495-.525,1.827,1.827,0,0,1-.225-.7,6.314,6.314,0,0,1-.045-.72v-4.8A3.2,3.2,0,0,0,6.4,22.535a3.366,3.366,0,0,0-.81-.99,3.046,3.046,0,0,0-.975-.54,4.048,4.048,0,0,0-.84-.2v-.09a4.581,4.581,0,0,0,.84-.18,2.819,2.819,0,0,0,.975-.525,3.183,3.183,0,0,0,.81-1.05A3.938,3.938,0,0,0,6.75,17.18V12.62a6.548,6.548,0,0,1,.045-.75,1.827,1.827,0,0,1,.225-.705,1.55,1.55,0,0,1,.495-.525,1.524,1.524,0,0,1,.855-.21Z" transform="translate(1171 477)" fill="#fff"/>
    <path id="Path_97-27" data-name="Path 97" d="M9.99,10.43V7.07H6.18a3.189,3.189,0,0,0-1.155.255,4.016,4.016,0,0,0-1.2.75,4.25,4.25,0,0,0-.945,1.26,3.88,3.88,0,0,0-.39,1.785v5.64a2.532,2.532,0,0,1-.3,1.275,2.712,2.712,0,0,1-.72.84,2.718,2.718,0,0,1-.9.45,3.088,3.088,0,0,1-.81.135v2.61a3.088,3.088,0,0,1,.81.135,3.078,3.078,0,0,1,.9.42,2.522,2.522,0,0,1,.72.765,2.165,2.165,0,0,1,.3,1.17v5.82a3.88,3.88,0,0,0,.39,1.785,4.25,4.25,0,0,0,.945,1.26,4.016,4.016,0,0,0,1.2.75,3.189,3.189,0,0,0,1.155.255H9.99V31.07H8.37a1.524,1.524,0,0,1-.855-.21,1.55,1.55,0,0,1-.495-.525,1.827,1.827,0,0,1-.225-.7,6.314,6.314,0,0,1-.045-.72v-4.8A3.2,3.2,0,0,0,6.4,22.535a3.366,3.366,0,0,0-.81-.99,3.046,3.046,0,0,0-.975-.54,4.048,4.048,0,0,0-.84-.2v-.09a4.581,4.581,0,0,0,.84-.18,2.819,2.819,0,0,0,.975-.525,3.183,3.183,0,0,0,.81-1.05A3.938,3.938,0,0,0,6.75,17.18V12.62a6.548,6.548,0,0,1,.045-.75,1.827,1.827,0,0,1,.225-.705,1.55,1.55,0,0,1,.495-.525,1.524,1.524,0,0,1,.855-.21Z" transform="translate(1204 477)" fill="#fff"/>
    <path id="Path_97-28" data-name="Path 97" d="M9.99,10.43V7.07H6.18a3.189,3.189,0,0,0-1.155.255,4.016,4.016,0,0,0-1.2.75,4.25,4.25,0,0,0-.945,1.26,3.88,3.88,0,0,0-.39,1.785v5.64a2.532,2.532,0,0,1-.3,1.275,2.712,2.712,0,0,1-.72.84,2.718,2.718,0,0,1-.9.45,3.088,3.088,0,0,1-.81.135v2.61a3.088,3.088,0,0,1,.81.135,3.078,3.078,0,0,1,.9.42,2.522,2.522,0,0,1,.72.765,2.165,2.165,0,0,1,.3,1.17v5.82a3.88,3.88,0,0,0,.39,1.785,4.25,4.25,0,0,0,.945,1.26,4.016,4.016,0,0,0,1.2.75,3.189,3.189,0,0,0,1.155.255H9.99V31.07H8.37a1.524,1.524,0,0,1-.855-.21,1.55,1.55,0,0,1-.495-.525,1.827,1.827,0,0,1-.225-.7,6.314,6.314,0,0,1-.045-.72v-4.8A3.2,3.2,0,0,0,6.4,22.535a3.366,3.366,0,0,0-.81-.99,3.046,3.046,0,0,0-.975-.54,4.048,4.048,0,0,0-.84-.2v-.09a4.581,4.581,0,0,0,.84-.18,2.819,2.819,0,0,0,.975-.525,3.183,3.183,0,0,0,.81-1.05A3.938,3.938,0,0,0,6.75,17.18V12.62a6.548,6.548,0,0,1,.045-.75,1.827,1.827,0,0,1,.225-.705,1.55,1.55,0,0,1,.495-.525,1.524,1.524,0,0,1,.855-.21Z" transform="translate(1237 477)" fill="#fff"/>
    <path id="Path_97-29" data-name="Path 97" d="M9.99,10.43V7.07H6.18a3.189,3.189,0,0,0-1.155.255,4.016,4.016,0,0,0-1.2.75,4.25,4.25,0,0,0-.945,1.26,3.88,3.88,0,0,0-.39,1.785v5.64a2.532,2.532,0,0,1-.3,1.275,2.712,2.712,0,0,1-.72.84,2.718,2.718,0,0,1-.9.45,3.088,3.088,0,0,1-.81.135v2.61a3.088,3.088,0,0,1,.81.135,3.078,3.078,0,0,1,.9.42,2.522,2.522,0,0,1,.72.765,2.165,2.165,0,0,1,.3,1.17v5.82a3.88,3.88,0,0,0,.39,1.785,4.25,4.25,0,0,0,.945,1.26,4.016,4.016,0,0,0,1.2.75,3.189,3.189,0,0,0,1.155.255H9.99V31.07H8.37a1.524,1.524,0,0,1-.855-.21,1.55,1.55,0,0,1-.495-.525,1.827,1.827,0,0,1-.225-.7,6.314,6.314,0,0,1-.045-.72v-4.8A3.2,3.2,0,0,0,6.4,22.535a3.366,3.366,0,0,0-.81-.99,3.046,3.046,0,0,0-.975-.54,4.048,4.048,0,0,0-.84-.2v-.09a4.581,4.581,0,0,0,.84-.18,2.819,2.819,0,0,0,.975-.525,3.183,3.183,0,0,0,.81-1.05A3.938,3.938,0,0,0,6.75,17.18V12.62a6.548,6.548,0,0,1,.045-.75,1.827,1.827,0,0,1,.225-.705,1.55,1.55,0,0,1,.495-.525,1.524,1.524,0,0,1,.855-.21Z" transform="translate(1270 477)" fill="#fff"/>
    <path id="Path_97-30" data-name="Path 97" d="M9.99,10.43V7.07H6.18a3.189,3.189,0,0,0-1.155.255,4.016,4.016,0,0,0-1.2.75,4.25,4.25,0,0,0-.945,1.26,3.88,3.88,0,0,0-.39,1.785v5.64a2.532,2.532,0,0,1-.3,1.275,2.712,2.712,0,0,1-.72.84,2.718,2.718,0,0,1-.9.45,3.088,3.088,0,0,1-.81.135v2.61a3.088,3.088,0,0,1,.81.135,3.078,3.078,0,0,1,.9.42,2.522,2.522,0,0,1,.72.765,2.165,2.165,0,0,1,.3,1.17v5.82a3.88,3.88,0,0,0,.39,1.785,4.25,4.25,0,0,0,.945,1.26,4.016,4.016,0,0,0,1.2.75,3.189,3.189,0,0,0,1.155.255H9.99V31.07H8.37a1.524,1.524,0,0,1-.855-.21,1.55,1.55,0,0,1-.495-.525,1.827,1.827,0,0,1-.225-.7,6.314,6.314,0,0,1-.045-.72v-4.8A3.2,3.2,0,0,0,6.4,22.535a3.366,3.366,0,0,0-.81-.99,3.046,3.046,0,0,0-.975-.54,4.048,4.048,0,0,0-.84-.2v-.09a4.581,4.581,0,0,0,.84-.18,2.819,2.819,0,0,0,.975-.525,3.183,3.183,0,0,0,.81-1.05A3.938,3.938,0,0,0,6.75,17.18V12.62a6.548,6.548,0,0,1,.045-.75,1.827,1.827,0,0,1,.225-.705,1.55,1.55,0,0,1,.495-.525,1.524,1.524,0,0,1,.855-.21Z" transform="translate(1303 477)" fill="#fff"/>
    <path id="Path_97-31" data-name="Path 97" d="M9.99,10.43V7.07H6.18a3.189,3.189,0,0,0-1.155.255,4.016,4.016,0,0,0-1.2.75,4.25,4.25,0,0,0-.945,1.26,3.88,3.88,0,0,0-.39,1.785v5.64a2.532,2.532,0,0,1-.3,1.275,2.712,2.712,0,0,1-.72.84,2.718,2.718,0,0,1-.9.45,3.088,3.088,0,0,1-.81.135v2.61a3.088,3.088,0,0,1,.81.135,3.078,3.078,0,0,1,.9.42,2.522,2.522,0,0,1,.72.765,2.165,2.165,0,0,1,.3,1.17v5.82a3.88,3.88,0,0,0,.39,1.785,4.25,4.25,0,0,0,.945,1.26,4.016,4.016,0,0,0,1.2.75,3.189,3.189,0,0,0,1.155.255H9.99V31.07H8.37a1.524,1.524,0,0,1-.855-.21,1.55,1.55,0,0,1-.495-.525,1.827,1.827,0,0,1-.225-.7,6.314,6.314,0,0,1-.045-.72v-4.8A3.2,3.2,0,0,0,6.4,22.535a3.366,3.366,0,0,0-.81-.99,3.046,3.046,0,0,0-.975-.54,4.048,4.048,0,0,0-.84-.2v-.09a4.581,4.581,0,0,0,.84-.18,2.819,2.819,0,0,0,.975-.525,3.183,3.183,0,0,0,.81-1.05A3.938,3.938,0,0,0,6.75,17.18V12.62a6.548,6.548,0,0,1,.045-.75,1.827,1.827,0,0,1,.225-.705,1.55,1.55,0,0,1,.495-.525,1.524,1.524,0,0,1,.855-.21Z" transform="translate(1402 477)" fill="#fff"/>
    <path id="Path_97-32" data-name="Path 97" d="M9.99,10.43V7.07H6.18a3.189,3.189,0,0,0-1.155.255,4.016,4.016,0,0,0-1.2.75,4.25,4.25,0,0,0-.945,1.26,3.88,3.88,0,0,0-.39,1.785v5.64a2.532,2.532,0,0,1-.3,1.275,2.712,2.712,0,0,1-.72.84,2.718,2.718,0,0,1-.9.45,3.088,3.088,0,0,1-.81.135v2.61a3.088,3.088,0,0,1,.81.135,3.078,3.078,0,0,1,.9.42,2.522,2.522,0,0,1,.72.765,2.165,2.165,0,0,1,.3,1.17v5.82a3.88,3.88,0,0,0,.39,1.785,4.25,4.25,0,0,0,.945,1.26,4.016,4.016,0,0,0,1.2.75,3.189,3.189,0,0,0,1.155.255H9.99V31.07H8.37a1.524,1.524,0,0,1-.855-.21,1.55,1.55,0,0,1-.495-.525,1.827,1.827,0,0,1-.225-.7,6.314,6.314,0,0,1-.045-.72v-4.8A3.2,3.2,0,0,0,6.4,22.535a3.366,3.366,0,0,0-.81-.99,3.046,3.046,0,0,0-.975-.54,4.048,4.048,0,0,0-.84-.2v-.09a4.581,4.581,0,0,0,.84-.18,2.819,2.819,0,0,0,.975-.525,3.183,3.183,0,0,0,.81-1.05A3.938,3.938,0,0,0,6.75,17.18V12.62a6.548,6.548,0,0,1,.045-.75,1.827,1.827,0,0,1,.225-.705,1.55,1.55,0,0,1,.495-.525,1.524,1.524,0,0,1,.855-.21Z" transform="translate(1435 477)" fill="#fff"/>
    <path id="Path_97-33" data-name="Path 97" d="M9.99,10.43V7.07H6.18a3.189,3.189,0,0,0-1.155.255,4.016,4.016,0,0,0-1.2.75,4.25,4.25,0,0,0-.945,1.26,3.88,3.88,0,0,0-.39,1.785v5.64a2.532,2.532,0,0,1-.3,1.275,2.712,2.712,0,0,1-.72.84,2.718,2.718,0,0,1-.9.45,3.088,3.088,0,0,1-.81.135v2.61a3.088,3.088,0,0,1,.81.135,3.078,3.078,0,0,1,.9.42,2.522,2.522,0,0,1,.72.765,2.165,2.165,0,0,1,.3,1.17v5.82a3.88,3.88,0,0,0,.39,1.785,4.25,4.25,0,0,0,.945,1.26,4.016,4.016,0,0,0,1.2.75,3.189,3.189,0,0,0,1.155.255H9.99V31.07H8.37a1.524,1.524,0,0,1-.855-.21,1.55,1.55,0,0,1-.495-.525,1.827,1.827,0,0,1-.225-.7,6.314,6.314,0,0,1-.045-.72v-4.8A3.2,3.2,0,0,0,6.4,22.535a3.366,3.366,0,0,0-.81-.99,3.046,3.046,0,0,0-.975-.54,4.048,4.048,0,0,0-.84-.2v-.09a4.581,4.581,0,0,0,.84-.18,2.819,2.819,0,0,0,.975-.525,3.183,3.183,0,0,0,.81-1.05A3.938,3.938,0,0,0,6.75,17.18V12.62a6.548,6.548,0,0,1,.045-.75,1.827,1.827,0,0,1,.225-.705,1.55,1.55,0,0,1,.495-.525,1.524,1.524,0,0,1,.855-.21Z" transform="translate(1468 477)" fill="#fff"/>
    <path id="Path_97-34" data-name="Path 97" d="M9.99,10.43V7.07H6.18a3.189,3.189,0,0,0-1.155.255,4.016,4.016,0,0,0-1.2.75,4.25,4.25,0,0,0-.945,1.26,3.88,3.88,0,0,0-.39,1.785v5.64a2.532,2.532,0,0,1-.3,1.275,2.712,2.712,0,0,1-.72.84,2.718,2.718,0,0,1-.9.45,3.088,3.088,0,0,1-.81.135v2.61a3.088,3.088,0,0,1,.81.135,3.078,3.078,0,0,1,.9.42,2.522,2.522,0,0,1,.72.765,2.165,2.165,0,0,1,.3,1.17v5.82a3.88,3.88,0,0,0,.39,1.785,4.25,4.25,0,0,0,.945,1.26,4.016,4.016,0,0,0,1.2.75,3.189,3.189,0,0,0,1.155.255H9.99V31.07H8.37a1.524,1.524,0,0,1-.855-.21,1.55,1.55,0,0,1-.495-.525,1.827,1.827,0,0,1-.225-.7,6.314,6.314,0,0,1-.045-.72v-4.8A3.2,3.2,0,0,0,6.4,22.535a3.366,3.366,0,0,0-.81-.99,3.046,3.046,0,0,0-.975-.54,4.048,4.048,0,0,0-.84-.2v-.09a4.581,4.581,0,0,0,.84-.18,2.819,2.819,0,0,0,.975-.525,3.183,3.183,0,0,0,.81-1.05A3.938,3.938,0,0,0,6.75,17.18V12.62a6.548,6.548,0,0,1,.045-.75,1.827,1.827,0,0,1,.225-.705,1.55,1.55,0,0,1,.495-.525,1.524,1.524,0,0,1,.855-.21Z" transform="translate(1006 531)" fill="#fff"/>
    <path id="Path_97-35" data-name="Path 97" d="M9.99,10.43V7.07H6.18a3.189,3.189,0,0,0-1.155.255,4.016,4.016,0,0,0-1.2.75,4.25,4.25,0,0,0-.945,1.26,3.88,3.88,0,0,0-.39,1.785v5.64a2.532,2.532,0,0,1-.3,1.275,2.712,2.712,0,0,1-.72.84,2.718,2.718,0,0,1-.9.45,3.088,3.088,0,0,1-.81.135v2.61a3.088,3.088,0,0,1,.81.135,3.078,3.078,0,0,1,.9.42,2.522,2.522,0,0,1,.72.765,2.165,2.165,0,0,1,.3,1.17v5.82a3.88,3.88,0,0,0,.39,1.785,4.25,4.25,0,0,0,.945,1.26,4.016,4.016,0,0,0,1.2.75,3.189,3.189,0,0,0,1.155.255H9.99V31.07H8.37a1.524,1.524,0,0,1-.855-.21,1.55,1.55,0,0,1-.495-.525,1.827,1.827,0,0,1-.225-.7,6.314,6.314,0,0,1-.045-.72v-4.8A3.2,3.2,0,0,0,6.4,22.535a3.366,3.366,0,0,0-.81-.99,3.046,3.046,0,0,0-.975-.54,4.048,4.048,0,0,0-.84-.2v-.09a4.581,4.581,0,0,0,.84-.18,2.819,2.819,0,0,0,.975-.525,3.183,3.183,0,0,0,.81-1.05A3.938,3.938,0,0,0,6.75,17.18V12.62a6.548,6.548,0,0,1,.045-.75,1.827,1.827,0,0,1,.225-.705,1.55,1.55,0,0,1,.495-.525,1.524,1.524,0,0,1,.855-.21Z" transform="translate(1039 531)" fill="#fff"/>
    <path id="Path_97-36" data-name="Path 97" d="M9.99,10.43V7.07H6.18a3.189,3.189,0,0,0-1.155.255,4.016,4.016,0,0,0-1.2.75,4.25,4.25,0,0,0-.945,1.26,3.88,3.88,0,0,0-.39,1.785v5.64a2.532,2.532,0,0,1-.3,1.275,2.712,2.712,0,0,1-.72.84,2.718,2.718,0,0,1-.9.45,3.088,3.088,0,0,1-.81.135v2.61a3.088,3.088,0,0,1,.81.135,3.078,3.078,0,0,1,.9.42,2.522,2.522,0,0,1,.72.765,2.165,2.165,0,0,1,.3,1.17v5.82a3.88,3.88,0,0,0,.39,1.785,4.25,4.25,0,0,0,.945,1.26,4.016,4.016,0,0,0,1.2.75,3.189,3.189,0,0,0,1.155.255H9.99V31.07H8.37a1.524,1.524,0,0,1-.855-.21,1.55,1.55,0,0,1-.495-.525,1.827,1.827,0,0,1-.225-.7,6.314,6.314,0,0,1-.045-.72v-4.8A3.2,3.2,0,0,0,6.4,22.535a3.366,3.366,0,0,0-.81-.99,3.046,3.046,0,0,0-.975-.54,4.048,4.048,0,0,0-.84-.2v-.09a4.581,4.581,0,0,0,.84-.18,2.819,2.819,0,0,0,.975-.525,3.183,3.183,0,0,0,.81-1.05A3.938,3.938,0,0,0,6.75,17.18V12.62a6.548,6.548,0,0,1,.045-.75,1.827,1.827,0,0,1,.225-.705,1.55,1.55,0,0,1,.495-.525,1.524,1.524,0,0,1,.855-.21Z" transform="translate(1072 531)" fill="#fff"/>
    <path id="Path_97-37" data-name="Path 97" d="M9.99,10.43V7.07H6.18a3.189,3.189,0,0,0-1.155.255,4.016,4.016,0,0,0-1.2.75,4.25,4.25,0,0,0-.945,1.26,3.88,3.88,0,0,0-.39,1.785v5.64a2.532,2.532,0,0,1-.3,1.275,2.712,2.712,0,0,1-.72.84,2.718,2.718,0,0,1-.9.45,3.088,3.088,0,0,1-.81.135v2.61a3.088,3.088,0,0,1,.81.135,3.078,3.078,0,0,1,.9.42,2.522,2.522,0,0,1,.72.765,2.165,2.165,0,0,1,.3,1.17v5.82a3.88,3.88,0,0,0,.39,1.785,4.25,4.25,0,0,0,.945,1.26,4.016,4.016,0,0,0,1.2.75,3.189,3.189,0,0,0,1.155.255H9.99V31.07H8.37a1.524,1.524,0,0,1-.855-.21,1.55,1.55,0,0,1-.495-.525,1.827,1.827,0,0,1-.225-.7,6.314,6.314,0,0,1-.045-.72v-4.8A3.2,3.2,0,0,0,6.4,22.535a3.366,3.366,0,0,0-.81-.99,3.046,3.046,0,0,0-.975-.54,4.048,4.048,0,0,0-.84-.2v-.09a4.581,4.581,0,0,0,.84-.18,2.819,2.819,0,0,0,.975-.525,3.183,3.183,0,0,0,.81-1.05A3.938,3.938,0,0,0,6.75,17.18V12.62a6.548,6.548,0,0,1,.045-.75,1.827,1.827,0,0,1,.225-.705,1.55,1.55,0,0,1,.495-.525,1.524,1.524,0,0,1,.855-.21Z" transform="translate(1171 531)" fill="#fff"/>
    <path id="Path_97-38" data-name="Path 97" d="M9.99,10.43V7.07H6.18a3.189,3.189,0,0,0-1.155.255,4.016,4.016,0,0,0-1.2.75,4.25,4.25,0,0,0-.945,1.26,3.88,3.88,0,0,0-.39,1.785v5.64a2.532,2.532,0,0,1-.3,1.275,2.712,2.712,0,0,1-.72.84,2.718,2.718,0,0,1-.9.45,3.088,3.088,0,0,1-.81.135v2.61a3.088,3.088,0,0,1,.81.135,3.078,3.078,0,0,1,.9.42,2.522,2.522,0,0,1,.72.765,2.165,2.165,0,0,1,.3,1.17v5.82a3.88,3.88,0,0,0,.39,1.785,4.25,4.25,0,0,0,.945,1.26,4.016,4.016,0,0,0,1.2.75,3.189,3.189,0,0,0,1.155.255H9.99V31.07H8.37a1.524,1.524,0,0,1-.855-.21,1.55,1.55,0,0,1-.495-.525,1.827,1.827,0,0,1-.225-.7,6.314,6.314,0,0,1-.045-.72v-4.8A3.2,3.2,0,0,0,6.4,22.535a3.366,3.366,0,0,0-.81-.99,3.046,3.046,0,0,0-.975-.54,4.048,4.048,0,0,0-.84-.2v-.09a4.581,4.581,0,0,0,.84-.18,2.819,2.819,0,0,0,.975-.525,3.183,3.183,0,0,0,.81-1.05A3.938,3.938,0,0,0,6.75,17.18V12.62a6.548,6.548,0,0,1,.045-.75,1.827,1.827,0,0,1,.225-.705,1.55,1.55,0,0,1,.495-.525,1.524,1.524,0,0,1,.855-.21Z" transform="translate(1204 531)" fill="#fff"/>
    <path id="Path_97-39" data-name="Path 97" d="M9.99,10.43V7.07H6.18a3.189,3.189,0,0,0-1.155.255,4.016,4.016,0,0,0-1.2.75,4.25,4.25,0,0,0-.945,1.26,3.88,3.88,0,0,0-.39,1.785v5.64a2.532,2.532,0,0,1-.3,1.275,2.712,2.712,0,0,1-.72.84,2.718,2.718,0,0,1-.9.45,3.088,3.088,0,0,1-.81.135v2.61a3.088,3.088,0,0,1,.81.135,3.078,3.078,0,0,1,.9.42,2.522,2.522,0,0,1,.72.765,2.165,2.165,0,0,1,.3,1.17v5.82a3.88,3.88,0,0,0,.39,1.785,4.25,4.25,0,0,0,.945,1.26,4.016,4.016,0,0,0,1.2.75,3.189,3.189,0,0,0,1.155.255H9.99V31.07H8.37a1.524,1.524,0,0,1-.855-.21,1.55,1.55,0,0,1-.495-.525,1.827,1.827,0,0,1-.225-.7,6.314,6.314,0,0,1-.045-.72v-4.8A3.2,3.2,0,0,0,6.4,22.535a3.366,3.366,0,0,0-.81-.99,3.046,3.046,0,0,0-.975-.54,4.048,4.048,0,0,0-.84-.2v-.09a4.581,4.581,0,0,0,.84-.18,2.819,2.819,0,0,0,.975-.525,3.183,3.183,0,0,0,.81-1.05A3.938,3.938,0,0,0,6.75,17.18V12.62a6.548,6.548,0,0,1,.045-.75,1.827,1.827,0,0,1,.225-.705,1.55,1.55,0,0,1,.495-.525,1.524,1.524,0,0,1,.855-.21Z" transform="translate(1270 531)" fill="#fff"/>
    <path id="Path_97-40" data-name="Path 97" d="M9.99,10.43V7.07H6.18a3.189,3.189,0,0,0-1.155.255,4.016,4.016,0,0,0-1.2.75,4.25,4.25,0,0,0-.945,1.26,3.88,3.88,0,0,0-.39,1.785v5.64a2.532,2.532,0,0,1-.3,1.275,2.712,2.712,0,0,1-.72.84,2.718,2.718,0,0,1-.9.45,3.088,3.088,0,0,1-.81.135v2.61a3.088,3.088,0,0,1,.81.135,3.078,3.078,0,0,1,.9.42,2.522,2.522,0,0,1,.72.765,2.165,2.165,0,0,1,.3,1.17v5.82a3.88,3.88,0,0,0,.39,1.785,4.25,4.25,0,0,0,.945,1.26,4.016,4.016,0,0,0,1.2.75,3.189,3.189,0,0,0,1.155.255H9.99V31.07H8.37a1.524,1.524,0,0,1-.855-.21,1.55,1.55,0,0,1-.495-.525,1.827,1.827,0,0,1-.225-.7,6.314,6.314,0,0,1-.045-.72v-4.8A3.2,3.2,0,0,0,6.4,22.535a3.366,3.366,0,0,0-.81-.99,3.046,3.046,0,0,0-.975-.54,4.048,4.048,0,0,0-.84-.2v-.09a4.581,4.581,0,0,0,.84-.18,2.819,2.819,0,0,0,.975-.525,3.183,3.183,0,0,0,.81-1.05A3.938,3.938,0,0,0,6.75,17.18V12.62a6.548,6.548,0,0,1,.045-.75,1.827,1.827,0,0,1,.225-.705,1.55,1.55,0,0,1,.495-.525,1.524,1.524,0,0,1,.855-.21Z" transform="translate(1303 531)" fill="#fff"/>
    <path id="Path_97-41" data-name="Path 97" d="M9.99,10.43V7.07H6.18a3.189,3.189,0,0,0-1.155.255,4.016,4.016,0,0,0-1.2.75,4.25,4.25,0,0,0-.945,1.26,3.88,3.88,0,0,0-.39,1.785v5.64a2.532,2.532,0,0,1-.3,1.275,2.712,2.712,0,0,1-.72.84,2.718,2.718,0,0,1-.9.45,3.088,3.088,0,0,1-.81.135v2.61a3.088,3.088,0,0,1,.81.135,3.078,3.078,0,0,1,.9.42,2.522,2.522,0,0,1,.72.765,2.165,2.165,0,0,1,.3,1.17v5.82a3.88,3.88,0,0,0,.39,1.785,4.25,4.25,0,0,0,.945,1.26,4.016,4.016,0,0,0,1.2.75,3.189,3.189,0,0,0,1.155.255H9.99V31.07H8.37a1.524,1.524,0,0,1-.855-.21,1.55,1.55,0,0,1-.495-.525,1.827,1.827,0,0,1-.225-.7,6.314,6.314,0,0,1-.045-.72v-4.8A3.2,3.2,0,0,0,6.4,22.535a3.366,3.366,0,0,0-.81-.99,3.046,3.046,0,0,0-.975-.54,4.048,4.048,0,0,0-.84-.2v-.09a4.581,4.581,0,0,0,.84-.18,2.819,2.819,0,0,0,.975-.525,3.183,3.183,0,0,0,.81-1.05A3.938,3.938,0,0,0,6.75,17.18V12.62a6.548,6.548,0,0,1,.045-.75,1.827,1.827,0,0,1,.225-.705,1.55,1.55,0,0,1,.495-.525,1.524,1.524,0,0,1,.855-.21Z" transform="translate(1402 531)" fill="#fff"/>
    <path id="Path_97-42" data-name="Path 97" d="M9.99,10.43V7.07H6.18a3.189,3.189,0,0,0-1.155.255,4.016,4.016,0,0,0-1.2.75,4.25,4.25,0,0,0-.945,1.26,3.88,3.88,0,0,0-.39,1.785v5.64a2.532,2.532,0,0,1-.3,1.275,2.712,2.712,0,0,1-.72.84,2.718,2.718,0,0,1-.9.45,3.088,3.088,0,0,1-.81.135v2.61a3.088,3.088,0,0,1,.81.135,3.078,3.078,0,0,1,.9.42,2.522,2.522,0,0,1,.72.765,2.165,2.165,0,0,1,.3,1.17v5.82a3.88,3.88,0,0,0,.39,1.785,4.25,4.25,0,0,0,.945,1.26,4.016,4.016,0,0,0,1.2.75,3.189,3.189,0,0,0,1.155.255H9.99V31.07H8.37a1.524,1.524,0,0,1-.855-.21,1.55,1.55,0,0,1-.495-.525,1.827,1.827,0,0,1-.225-.7,6.314,6.314,0,0,1-.045-.72v-4.8A3.2,3.2,0,0,0,6.4,22.535a3.366,3.366,0,0,0-.81-.99,3.046,3.046,0,0,0-.975-.54,4.048,4.048,0,0,0-.84-.2v-.09a4.581,4.581,0,0,0,.84-.18,2.819,2.819,0,0,0,.975-.525,3.183,3.183,0,0,0,.81-1.05A3.938,3.938,0,0,0,6.75,17.18V12.62a6.548,6.548,0,0,1,.045-.75,1.827,1.827,0,0,1,.225-.705,1.55,1.55,0,0,1,.495-.525,1.524,1.524,0,0,1,.855-.21Z" transform="translate(1435 531)" fill="#fff"/>
    <path id="Path_97-43" data-name="Path 97" d="M9.99,10.43V7.07H6.18a3.189,3.189,0,0,0-1.155.255,4.016,4.016,0,0,0-1.2.75,4.25,4.25,0,0,0-.945,1.26,3.88,3.88,0,0,0-.39,1.785v5.64a2.532,2.532,0,0,1-.3,1.275,2.712,2.712,0,0,1-.72.84,2.718,2.718,0,0,1-.9.45,3.088,3.088,0,0,1-.81.135v2.61a3.088,3.088,0,0,1,.81.135,3.078,3.078,0,0,1,.9.42,2.522,2.522,0,0,1,.72.765,2.165,2.165,0,0,1,.3,1.17v5.82a3.88,3.88,0,0,0,.39,1.785,4.25,4.25,0,0,0,.945,1.26,4.016,4.016,0,0,0,1.2.75,3.189,3.189,0,0,0,1.155.255H9.99V31.07H8.37a1.524,1.524,0,0,1-.855-.21,1.55,1.55,0,0,1-.495-.525,1.827,1.827,0,0,1-.225-.7,6.314,6.314,0,0,1-.045-.72v-4.8A3.2,3.2,0,0,0,6.4,22.535a3.366,3.366,0,0,0-.81-.99,3.046,3.046,0,0,0-.975-.54,4.048,4.048,0,0,0-.84-.2v-.09a4.581,4.581,0,0,0,.84-.18,2.819,2.819,0,0,0,.975-.525,3.183,3.183,0,0,0,.81-1.05A3.938,3.938,0,0,0,6.75,17.18V12.62a6.548,6.548,0,0,1,.045-.75,1.827,1.827,0,0,1,.225-.705,1.55,1.55,0,0,1,.495-.525,1.524,1.524,0,0,1,.855-.21Z" transform="translate(1468 531)" fill="#fff"/>
    <path id="Path_97-44" data-name="Path 97" d="M9.99,10.43V7.07H6.18a3.189,3.189,0,0,0-1.155.255,4.016,4.016,0,0,0-1.2.75,4.25,4.25,0,0,0-.945,1.26,3.88,3.88,0,0,0-.39,1.785v5.64a2.532,2.532,0,0,1-.3,1.275,2.712,2.712,0,0,1-.72.84,2.718,2.718,0,0,1-.9.45,3.088,3.088,0,0,1-.81.135v2.61a3.088,3.088,0,0,1,.81.135,3.078,3.078,0,0,1,.9.42,2.522,2.522,0,0,1,.72.765,2.165,2.165,0,0,1,.3,1.17v5.82a3.88,3.88,0,0,0,.39,1.785,4.25,4.25,0,0,0,.945,1.26,4.016,4.016,0,0,0,1.2.75,3.189,3.189,0,0,0,1.155.255H9.99V31.07H8.37a1.524,1.524,0,0,1-.855-.21,1.55,1.55,0,0,1-.495-.525,1.827,1.827,0,0,1-.225-.7,6.314,6.314,0,0,1-.045-.72v-4.8A3.2,3.2,0,0,0,6.4,22.535a3.366,3.366,0,0,0-.81-.99,3.046,3.046,0,0,0-.975-.54,4.048,4.048,0,0,0-.84-.2v-.09a4.581,4.581,0,0,0,.84-.18,2.819,2.819,0,0,0,.975-.525,3.183,3.183,0,0,0,.81-1.05A3.938,3.938,0,0,0,6.75,17.18V12.62a6.548,6.548,0,0,1,.045-.75,1.827,1.827,0,0,1,.225-.705,1.55,1.55,0,0,1,.495-.525,1.524,1.524,0,0,1,.855-.21Z" transform="translate(1039 585)" fill="#fff"/>
    <path id="Path_97-45" data-name="Path 97" d="M9.99,10.43V7.07H6.18a3.189,3.189,0,0,0-1.155.255,4.016,4.016,0,0,0-1.2.75,4.25,4.25,0,0,0-.945,1.26,3.88,3.88,0,0,0-.39,1.785v5.64a2.532,2.532,0,0,1-.3,1.275,2.712,2.712,0,0,1-.72.84,2.718,2.718,0,0,1-.9.45,3.088,3.088,0,0,1-.81.135v2.61a3.088,3.088,0,0,1,.81.135,3.078,3.078,0,0,1,.9.42,2.522,2.522,0,0,1,.72.765,2.165,2.165,0,0,1,.3,1.17v5.82a3.88,3.88,0,0,0,.39,1.785,4.25,4.25,0,0,0,.945,1.26,4.016,4.016,0,0,0,1.2.75,3.189,3.189,0,0,0,1.155.255H9.99V31.07H8.37a1.524,1.524,0,0,1-.855-.21,1.55,1.55,0,0,1-.495-.525,1.827,1.827,0,0,1-.225-.7,6.314,6.314,0,0,1-.045-.72v-4.8A3.2,3.2,0,0,0,6.4,22.535a3.366,3.366,0,0,0-.81-.99,3.046,3.046,0,0,0-.975-.54,4.048,4.048,0,0,0-.84-.2v-.09a4.581,4.581,0,0,0,.84-.18,2.819,2.819,0,0,0,.975-.525,3.183,3.183,0,0,0,.81-1.05A3.938,3.938,0,0,0,6.75,17.18V12.62a6.548,6.548,0,0,1,.045-.75,1.827,1.827,0,0,1,.225-.705,1.55,1.55,0,0,1,.495-.525,1.524,1.524,0,0,1,.855-.21Z" transform="translate(1072 585)" fill="#fff"/>
    <path id="Path_97-46" data-name="Path 97" d="M9.99,10.43V7.07H6.18a3.189,3.189,0,0,0-1.155.255,4.016,4.016,0,0,0-1.2.75,4.25,4.25,0,0,0-.945,1.26,3.88,3.88,0,0,0-.39,1.785v5.64a2.532,2.532,0,0,1-.3,1.275,2.712,2.712,0,0,1-.72.84,2.718,2.718,0,0,1-.9.45,3.088,3.088,0,0,1-.81.135v2.61a3.088,3.088,0,0,1,.81.135,3.078,3.078,0,0,1,.9.42,2.522,2.522,0,0,1,.72.765,2.165,2.165,0,0,1,.3,1.17v5.82a3.88,3.88,0,0,0,.39,1.785,4.25,4.25,0,0,0,.945,1.26,4.016,4.016,0,0,0,1.2.75,3.189,3.189,0,0,0,1.155.255H9.99V31.07H8.37a1.524,1.524,0,0,1-.855-.21,1.55,1.55,0,0,1-.495-.525,1.827,1.827,0,0,1-.225-.7,6.314,6.314,0,0,1-.045-.72v-4.8A3.2,3.2,0,0,0,6.4,22.535a3.366,3.366,0,0,0-.81-.99,3.046,3.046,0,0,0-.975-.54,4.048,4.048,0,0,0-.84-.2v-.09a4.581,4.581,0,0,0,.84-.18,2.819,2.819,0,0,0,.975-.525,3.183,3.183,0,0,0,.81-1.05A3.938,3.938,0,0,0,6.75,17.18V12.62a6.548,6.548,0,0,1,.045-.75,1.827,1.827,0,0,1,.225-.705,1.55,1.55,0,0,1,.495-.525,1.524,1.524,0,0,1,.855-.21Z" transform="translate(1105 585)" fill="#fff"/>
    <path id="Path_97-47" data-name="Path 97" d="M9.99,10.43V7.07H6.18a3.189,3.189,0,0,0-1.155.255,4.016,4.016,0,0,0-1.2.75,4.25,4.25,0,0,0-.945,1.26,3.88,3.88,0,0,0-.39,1.785v5.64a2.532,2.532,0,0,1-.3,1.275,2.712,2.712,0,0,1-.72.84,2.718,2.718,0,0,1-.9.45,3.088,3.088,0,0,1-.81.135v2.61a3.088,3.088,0,0,1,.81.135,3.078,3.078,0,0,1,.9.42,2.522,2.522,0,0,1,.72.765,2.165,2.165,0,0,1,.3,1.17v5.82a3.88,3.88,0,0,0,.39,1.785,4.25,4.25,0,0,0,.945,1.26,4.016,4.016,0,0,0,1.2.75,3.189,3.189,0,0,0,1.155.255H9.99V31.07H8.37a1.524,1.524,0,0,1-.855-.21,1.55,1.55,0,0,1-.495-.525,1.827,1.827,0,0,1-.225-.7,6.314,6.314,0,0,1-.045-.72v-4.8A3.2,3.2,0,0,0,6.4,22.535a3.366,3.366,0,0,0-.81-.99,3.046,3.046,0,0,0-.975-.54,4.048,4.048,0,0,0-.84-.2v-.09a4.581,4.581,0,0,0,.84-.18,2.819,2.819,0,0,0,.975-.525,3.183,3.183,0,0,0,.81-1.05A3.938,3.938,0,0,0,6.75,17.18V12.62a6.548,6.548,0,0,1,.045-.75,1.827,1.827,0,0,1,.225-.705,1.55,1.55,0,0,1,.495-.525,1.524,1.524,0,0,1,.855-.21Z" transform="translate(1138 585)" fill="#fff"/>
    <path id="Path_97-48" data-name="Path 97" d="M9.99,10.43V7.07H6.18a3.189,3.189,0,0,0-1.155.255,4.016,4.016,0,0,0-1.2.75,4.25,4.25,0,0,0-.945,1.26,3.88,3.88,0,0,0-.39,1.785v5.64a2.532,2.532,0,0,1-.3,1.275,2.712,2.712,0,0,1-.72.84,2.718,2.718,0,0,1-.9.45,3.088,3.088,0,0,1-.81.135v2.61a3.088,3.088,0,0,1,.81.135,3.078,3.078,0,0,1,.9.42,2.522,2.522,0,0,1,.72.765,2.165,2.165,0,0,1,.3,1.17v5.82a3.88,3.88,0,0,0,.39,1.785,4.25,4.25,0,0,0,.945,1.26,4.016,4.016,0,0,0,1.2.75,3.189,3.189,0,0,0,1.155.255H9.99V31.07H8.37a1.524,1.524,0,0,1-.855-.21,1.55,1.55,0,0,1-.495-.525,1.827,1.827,0,0,1-.225-.7,6.314,6.314,0,0,1-.045-.72v-4.8A3.2,3.2,0,0,0,6.4,22.535a3.366,3.366,0,0,0-.81-.99,3.046,3.046,0,0,0-.975-.54,4.048,4.048,0,0,0-.84-.2v-.09a4.581,4.581,0,0,0,.84-.18,2.819,2.819,0,0,0,.975-.525,3.183,3.183,0,0,0,.81-1.05A3.938,3.938,0,0,0,6.75,17.18V12.62a6.548,6.548,0,0,1,.045-.75,1.827,1.827,0,0,1,.225-.705,1.55,1.55,0,0,1,.495-.525,1.524,1.524,0,0,1,.855-.21Z" transform="translate(1171 585)" fill="#fff"/>
    <path id="Path_97-49" data-name="Path 97" d="M9.99,10.43V7.07H6.18a3.189,3.189,0,0,0-1.155.255,4.016,4.016,0,0,0-1.2.75,4.25,4.25,0,0,0-.945,1.26,3.88,3.88,0,0,0-.39,1.785v5.64a2.532,2.532,0,0,1-.3,1.275,2.712,2.712,0,0,1-.72.84,2.718,2.718,0,0,1-.9.45,3.088,3.088,0,0,1-.81.135v2.61a3.088,3.088,0,0,1,.81.135,3.078,3.078,0,0,1,.9.42,2.522,2.522,0,0,1,.72.765,2.165,2.165,0,0,1,.3,1.17v5.82a3.88,3.88,0,0,0,.39,1.785,4.25,4.25,0,0,0,.945,1.26,4.016,4.016,0,0,0,1.2.75,3.189,3.189,0,0,0,1.155.255H9.99V31.07H8.37a1.524,1.524,0,0,1-.855-.21,1.55,1.55,0,0,1-.495-.525,1.827,1.827,0,0,1-.225-.7,6.314,6.314,0,0,1-.045-.72v-4.8A3.2,3.2,0,0,0,6.4,22.535a3.366,3.366,0,0,0-.81-.99,3.046,3.046,0,0,0-.975-.54,4.048,4.048,0,0,0-.84-.2v-.09a4.581,4.581,0,0,0,.84-.18,2.819,2.819,0,0,0,.975-.525,3.183,3.183,0,0,0,.81-1.05A3.938,3.938,0,0,0,6.75,17.18V12.62a6.548,6.548,0,0,1,.045-.75,1.827,1.827,0,0,1,.225-.705,1.55,1.55,0,0,1,.495-.525,1.524,1.524,0,0,1,.855-.21Z" transform="translate(1204 585)" fill="#fff"/>
    <path id="Path_97-50" data-name="Path 97" d="M9.99,10.43V7.07H6.18a3.189,3.189,0,0,0-1.155.255,4.016,4.016,0,0,0-1.2.75,4.25,4.25,0,0,0-.945,1.26,3.88,3.88,0,0,0-.39,1.785v5.64a2.532,2.532,0,0,1-.3,1.275,2.712,2.712,0,0,1-.72.84,2.718,2.718,0,0,1-.9.45,3.088,3.088,0,0,1-.81.135v2.61a3.088,3.088,0,0,1,.81.135,3.078,3.078,0,0,1,.9.42,2.522,2.522,0,0,1,.72.765,2.165,2.165,0,0,1,.3,1.17v5.82a3.88,3.88,0,0,0,.39,1.785,4.25,4.25,0,0,0,.945,1.26,4.016,4.016,0,0,0,1.2.75,3.189,3.189,0,0,0,1.155.255H9.99V31.07H8.37a1.524,1.524,0,0,1-.855-.21,1.55,1.55,0,0,1-.495-.525,1.827,1.827,0,0,1-.225-.7,6.314,6.314,0,0,1-.045-.72v-4.8A3.2,3.2,0,0,0,6.4,22.535a3.366,3.366,0,0,0-.81-.99,3.046,3.046,0,0,0-.975-.54,4.048,4.048,0,0,0-.84-.2v-.09a4.581,4.581,0,0,0,.84-.18,2.819,2.819,0,0,0,.975-.525,3.183,3.183,0,0,0,.81-1.05A3.938,3.938,0,0,0,6.75,17.18V12.62a6.548,6.548,0,0,1,.045-.75,1.827,1.827,0,0,1,.225-.705,1.55,1.55,0,0,1,.495-.525,1.524,1.524,0,0,1,.855-.21Z" transform="translate(1270 585)" fill="#fff"/>
    <path id="Path_97-51" data-name="Path 97" d="M9.99,10.43V7.07H6.18a3.189,3.189,0,0,0-1.155.255,4.016,4.016,0,0,0-1.2.75,4.25,4.25,0,0,0-.945,1.26,3.88,3.88,0,0,0-.39,1.785v5.64a2.532,2.532,0,0,1-.3,1.275,2.712,2.712,0,0,1-.72.84,2.718,2.718,0,0,1-.9.45,3.088,3.088,0,0,1-.81.135v2.61a3.088,3.088,0,0,1,.81.135,3.078,3.078,0,0,1,.9.42,2.522,2.522,0,0,1,.72.765,2.165,2.165,0,0,1,.3,1.17v5.82a3.88,3.88,0,0,0,.39,1.785,4.25,4.25,0,0,0,.945,1.26,4.016,4.016,0,0,0,1.2.75,3.189,3.189,0,0,0,1.155.255H9.99V31.07H8.37a1.524,1.524,0,0,1-.855-.21,1.55,1.55,0,0,1-.495-.525,1.827,1.827,0,0,1-.225-.7,6.314,6.314,0,0,1-.045-.72v-4.8A3.2,3.2,0,0,0,6.4,22.535a3.366,3.366,0,0,0-.81-.99,3.046,3.046,0,0,0-.975-.54,4.048,4.048,0,0,0-.84-.2v-.09a4.581,4.581,0,0,0,.84-.18,2.819,2.819,0,0,0,.975-.525,3.183,3.183,0,0,0,.81-1.05A3.938,3.938,0,0,0,6.75,17.18V12.62a6.548,6.548,0,0,1,.045-.75,1.827,1.827,0,0,1,.225-.705,1.55,1.55,0,0,1,.495-.525,1.524,1.524,0,0,1,.855-.21Z" transform="translate(1303 585)" fill="#fff"/>
    <path id="Path_97-52" data-name="Path 97" d="M9.99,10.43V7.07H6.18a3.189,3.189,0,0,0-1.155.255,4.016,4.016,0,0,0-1.2.75,4.25,4.25,0,0,0-.945,1.26,3.88,3.88,0,0,0-.39,1.785v5.64a2.532,2.532,0,0,1-.3,1.275,2.712,2.712,0,0,1-.72.84,2.718,2.718,0,0,1-.9.45,3.088,3.088,0,0,1-.81.135v2.61a3.088,3.088,0,0,1,.81.135,3.078,3.078,0,0,1,.9.42,2.522,2.522,0,0,1,.72.765,2.165,2.165,0,0,1,.3,1.17v5.82a3.88,3.88,0,0,0,.39,1.785,4.25,4.25,0,0,0,.945,1.26,4.016,4.016,0,0,0,1.2.75,3.189,3.189,0,0,0,1.155.255H9.99V31.07H8.37a1.524,1.524,0,0,1-.855-.21,1.55,1.55,0,0,1-.495-.525,1.827,1.827,0,0,1-.225-.7,6.314,6.314,0,0,1-.045-.72v-4.8A3.2,3.2,0,0,0,6.4,22.535a3.366,3.366,0,0,0-.81-.99,3.046,3.046,0,0,0-.975-.54,4.048,4.048,0,0,0-.84-.2v-.09a4.581,4.581,0,0,0,.84-.18,2.819,2.819,0,0,0,.975-.525,3.183,3.183,0,0,0,.81-1.05A3.938,3.938,0,0,0,6.75,17.18V12.62a6.548,6.548,0,0,1,.045-.75,1.827,1.827,0,0,1,.225-.705,1.55,1.55,0,0,1,.495-.525,1.524,1.524,0,0,1,.855-.21Z" transform="translate(1336 585)" fill="#fff"/>
    <path id="Path_97-53" data-name="Path 97" d="M9.99,10.43V7.07H6.18a3.189,3.189,0,0,0-1.155.255,4.016,4.016,0,0,0-1.2.75,4.25,4.25,0,0,0-.945,1.26,3.88,3.88,0,0,0-.39,1.785v5.64a2.532,2.532,0,0,1-.3,1.275,2.712,2.712,0,0,1-.72.84,2.718,2.718,0,0,1-.9.45,3.088,3.088,0,0,1-.81.135v2.61a3.088,3.088,0,0,1,.81.135,3.078,3.078,0,0,1,.9.42,2.522,2.522,0,0,1,.72.765,2.165,2.165,0,0,1,.3,1.17v5.82a3.88,3.88,0,0,0,.39,1.785,4.25,4.25,0,0,0,.945,1.26,4.016,4.016,0,0,0,1.2.75,3.189,3.189,0,0,0,1.155.255H9.99V31.07H8.37a1.524,1.524,0,0,1-.855-.21,1.55,1.55,0,0,1-.495-.525,1.827,1.827,0,0,1-.225-.7,6.314,6.314,0,0,1-.045-.72v-4.8A3.2,3.2,0,0,0,6.4,22.535a3.366,3.366,0,0,0-.81-.99,3.046,3.046,0,0,0-.975-.54,4.048,4.048,0,0,0-.84-.2v-.09a4.581,4.581,0,0,0,.84-.18,2.819,2.819,0,0,0,.975-.525,3.183,3.183,0,0,0,.81-1.05A3.938,3.938,0,0,0,6.75,17.18V12.62a6.548,6.548,0,0,1,.045-.75,1.827,1.827,0,0,1,.225-.705,1.55,1.55,0,0,1,.495-.525,1.524,1.524,0,0,1,.855-.21Z" transform="translate(1369 585)" fill="#fff"/>
    <path id="Path_97-54" data-name="Path 97" d="M9.99,10.43V7.07H6.18a3.189,3.189,0,0,0-1.155.255,4.016,4.016,0,0,0-1.2.75,4.25,4.25,0,0,0-.945,1.26,3.88,3.88,0,0,0-.39,1.785v5.64a2.532,2.532,0,0,1-.3,1.275,2.712,2.712,0,0,1-.72.84,2.718,2.718,0,0,1-.9.45,3.088,3.088,0,0,1-.81.135v2.61a3.088,3.088,0,0,1,.81.135,3.078,3.078,0,0,1,.9.42,2.522,2.522,0,0,1,.72.765,2.165,2.165,0,0,1,.3,1.17v5.82a3.88,3.88,0,0,0,.39,1.785,4.25,4.25,0,0,0,.945,1.26,4.016,4.016,0,0,0,1.2.75,3.189,3.189,0,0,0,1.155.255H9.99V31.07H8.37a1.524,1.524,0,0,1-.855-.21,1.55,1.55,0,0,1-.495-.525,1.827,1.827,0,0,1-.225-.7,6.314,6.314,0,0,1-.045-.72v-4.8A3.2,3.2,0,0,0,6.4,22.535a3.366,3.366,0,0,0-.81-.99,3.046,3.046,0,0,0-.975-.54,4.048,4.048,0,0,0-.84-.2v-.09a4.581,4.581,0,0,0,.84-.18,2.819,2.819,0,0,0,.975-.525,3.183,3.183,0,0,0,.81-1.05A3.938,3.938,0,0,0,6.75,17.18V12.62a6.548,6.548,0,0,1,.045-.75,1.827,1.827,0,0,1,.225-.705,1.55,1.55,0,0,1,.495-.525,1.524,1.524,0,0,1,.855-.21Z" transform="translate(1402 585)" fill="#fff"/>
    <path id="Path_97-55" data-name="Path 97" d="M9.99,10.43V7.07H6.18a3.189,3.189,0,0,0-1.155.255,4.016,4.016,0,0,0-1.2.75,4.25,4.25,0,0,0-.945,1.26,3.88,3.88,0,0,0-.39,1.785v5.64a2.532,2.532,0,0,1-.3,1.275,2.712,2.712,0,0,1-.72.84,2.718,2.718,0,0,1-.9.45,3.088,3.088,0,0,1-.81.135v2.61a3.088,3.088,0,0,1,.81.135,3.078,3.078,0,0,1,.9.42,2.522,2.522,0,0,1,.72.765,2.165,2.165,0,0,1,.3,1.17v5.82a3.88,3.88,0,0,0,.39,1.785,4.25,4.25,0,0,0,.945,1.26,4.016,4.016,0,0,0,1.2.75,3.189,3.189,0,0,0,1.155.255H9.99V31.07H8.37a1.524,1.524,0,0,1-.855-.21,1.55,1.55,0,0,1-.495-.525,1.827,1.827,0,0,1-.225-.7,6.314,6.314,0,0,1-.045-.72v-4.8A3.2,3.2,0,0,0,6.4,22.535a3.366,3.366,0,0,0-.81-.99,3.046,3.046,0,0,0-.975-.54,4.048,4.048,0,0,0-.84-.2v-.09a4.581,4.581,0,0,0,.84-.18,2.819,2.819,0,0,0,.975-.525,3.183,3.183,0,0,0,.81-1.05A3.938,3.938,0,0,0,6.75,17.18V12.62a6.548,6.548,0,0,1,.045-.75,1.827,1.827,0,0,1,.225-.705,1.55,1.55,0,0,1,.495-.525,1.524,1.524,0,0,1,.855-.21Z" transform="translate(1435 585)" fill="#fff"/>
    <path id="Path_97-56" data-name="Path 97" d="M9.99,10.43V7.07H6.18a3.189,3.189,0,0,0-1.155.255,4.016,4.016,0,0,0-1.2.75,4.25,4.25,0,0,0-.945,1.26,3.88,3.88,0,0,0-.39,1.785v5.64a2.532,2.532,0,0,1-.3,1.275,2.712,2.712,0,0,1-.72.84,2.718,2.718,0,0,1-.9.45,3.088,3.088,0,0,1-.81.135v2.61a3.088,3.088,0,0,1,.81.135,3.078,3.078,0,0,1,.9.42,2.522,2.522,0,0,1,.72.765,2.165,2.165,0,0,1,.3,1.17v5.82a3.88,3.88,0,0,0,.39,1.785,4.25,4.25,0,0,0,.945,1.26,4.016,4.016,0,0,0,1.2.75,3.189,3.189,0,0,0,1.155.255H9.99V31.07H8.37a1.524,1.524,0,0,1-.855-.21,1.55,1.55,0,0,1-.495-.525,1.827,1.827,0,0,1-.225-.7,6.314,6.314,0,0,1-.045-.72v-4.8A3.2,3.2,0,0,0,6.4,22.535a3.366,3.366,0,0,0-.81-.99,3.046,3.046,0,0,0-.975-.54,4.048,4.048,0,0,0-.84-.2v-.09a4.581,4.581,0,0,0,.84-.18,2.819,2.819,0,0,0,.975-.525,3.183,3.183,0,0,0,.81-1.05A3.938,3.938,0,0,0,6.75,17.18V12.62a6.548,6.548,0,0,1,.045-.75,1.827,1.827,0,0,1,.225-.705,1.55,1.55,0,0,1,.495-.525,1.524,1.524,0,0,1,.855-.21Z" transform="translate(1039 639)" fill="#fff"/>
    <path id="Path_97-57" data-name="Path 97" d="M9.99,10.43V7.07H6.18a3.189,3.189,0,0,0-1.155.255,4.016,4.016,0,0,0-1.2.75,4.25,4.25,0,0,0-.945,1.26,3.88,3.88,0,0,0-.39,1.785v5.64a2.532,2.532,0,0,1-.3,1.275,2.712,2.712,0,0,1-.72.84,2.718,2.718,0,0,1-.9.45,3.088,3.088,0,0,1-.81.135v2.61a3.088,3.088,0,0,1,.81.135,3.078,3.078,0,0,1,.9.42,2.522,2.522,0,0,1,.72.765,2.165,2.165,0,0,1,.3,1.17v5.82a3.88,3.88,0,0,0,.39,1.785,4.25,4.25,0,0,0,.945,1.26,4.016,4.016,0,0,0,1.2.75,3.189,3.189,0,0,0,1.155.255H9.99V31.07H8.37a1.524,1.524,0,0,1-.855-.21,1.55,1.55,0,0,1-.495-.525,1.827,1.827,0,0,1-.225-.7,6.314,6.314,0,0,1-.045-.72v-4.8A3.2,3.2,0,0,0,6.4,22.535a3.366,3.366,0,0,0-.81-.99,3.046,3.046,0,0,0-.975-.54,4.048,4.048,0,0,0-.84-.2v-.09a4.581,4.581,0,0,0,.84-.18,2.819,2.819,0,0,0,.975-.525,3.183,3.183,0,0,0,.81-1.05A3.938,3.938,0,0,0,6.75,17.18V12.62a6.548,6.548,0,0,1,.045-.75,1.827,1.827,0,0,1,.225-.705,1.55,1.55,0,0,1,.495-.525,1.524,1.524,0,0,1,.855-.21Z" transform="translate(1072 639)" fill="#fff"/>
    <path id="Path_97-58" data-name="Path 97" d="M9.99,10.43V7.07H6.18a3.189,3.189,0,0,0-1.155.255,4.016,4.016,0,0,0-1.2.75,4.25,4.25,0,0,0-.945,1.26,3.88,3.88,0,0,0-.39,1.785v5.64a2.532,2.532,0,0,1-.3,1.275,2.712,2.712,0,0,1-.72.84,2.718,2.718,0,0,1-.9.45,3.088,3.088,0,0,1-.81.135v2.61a3.088,3.088,0,0,1,.81.135,3.078,3.078,0,0,1,.9.42,2.522,2.522,0,0,1,.72.765,2.165,2.165,0,0,1,.3,1.17v5.82a3.88,3.88,0,0,0,.39,1.785,4.25,4.25,0,0,0,.945,1.26,4.016,4.016,0,0,0,1.2.75,3.189,3.189,0,0,0,1.155.255H9.99V31.07H8.37a1.524,1.524,0,0,1-.855-.21,1.55,1.55,0,0,1-.495-.525,1.827,1.827,0,0,1-.225-.7,6.314,6.314,0,0,1-.045-.72v-4.8A3.2,3.2,0,0,0,6.4,22.535a3.366,3.366,0,0,0-.81-.99,3.046,3.046,0,0,0-.975-.54,4.048,4.048,0,0,0-.84-.2v-.09a4.581,4.581,0,0,0,.84-.18,2.819,2.819,0,0,0,.975-.525,3.183,3.183,0,0,0,.81-1.05A3.938,3.938,0,0,0,6.75,17.18V12.62a6.548,6.548,0,0,1,.045-.75,1.827,1.827,0,0,1,.225-.705,1.55,1.55,0,0,1,.495-.525,1.524,1.524,0,0,1,.855-.21Z" transform="translate(1105 639)" fill="#fff"/>
    <path id="Path_97-59" data-name="Path 97" d="M9.99,10.43V7.07H6.18a3.189,3.189,0,0,0-1.155.255,4.016,4.016,0,0,0-1.2.75,4.25,4.25,0,0,0-.945,1.26,3.88,3.88,0,0,0-.39,1.785v5.64a2.532,2.532,0,0,1-.3,1.275,2.712,2.712,0,0,1-.72.84,2.718,2.718,0,0,1-.9.45,3.088,3.088,0,0,1-.81.135v2.61a3.088,3.088,0,0,1,.81.135,3.078,3.078,0,0,1,.9.42,2.522,2.522,0,0,1,.72.765,2.165,2.165,0,0,1,.3,1.17v5.82a3.88,3.88,0,0,0,.39,1.785,4.25,4.25,0,0,0,.945,1.26,4.016,4.016,0,0,0,1.2.75,3.189,3.189,0,0,0,1.155.255H9.99V31.07H8.37a1.524,1.524,0,0,1-.855-.21,1.55,1.55,0,0,1-.495-.525,1.827,1.827,0,0,1-.225-.7,6.314,6.314,0,0,1-.045-.72v-4.8A3.2,3.2,0,0,0,6.4,22.535a3.366,3.366,0,0,0-.81-.99,3.046,3.046,0,0,0-.975-.54,4.048,4.048,0,0,0-.84-.2v-.09a4.581,4.581,0,0,0,.84-.18,2.819,2.819,0,0,0,.975-.525,3.183,3.183,0,0,0,.81-1.05A3.938,3.938,0,0,0,6.75,17.18V12.62a6.548,6.548,0,0,1,.045-.75,1.827,1.827,0,0,1,.225-.705,1.55,1.55,0,0,1,.495-.525,1.524,1.524,0,0,1,.855-.21Z" transform="translate(1138 639)" fill="#fff"/>
    <path id="Path_97-60" data-name="Path 97" d="M9.99,10.43V7.07H6.18a3.189,3.189,0,0,0-1.155.255,4.016,4.016,0,0,0-1.2.75,4.25,4.25,0,0,0-.945,1.26,3.88,3.88,0,0,0-.39,1.785v5.64a2.532,2.532,0,0,1-.3,1.275,2.712,2.712,0,0,1-.72.84,2.718,2.718,0,0,1-.9.45,3.088,3.088,0,0,1-.81.135v2.61a3.088,3.088,0,0,1,.81.135,3.078,3.078,0,0,1,.9.42,2.522,2.522,0,0,1,.72.765,2.165,2.165,0,0,1,.3,1.17v5.82a3.88,3.88,0,0,0,.39,1.785,4.25,4.25,0,0,0,.945,1.26,4.016,4.016,0,0,0,1.2.75,3.189,3.189,0,0,0,1.155.255H9.99V31.07H8.37a1.524,1.524,0,0,1-.855-.21,1.55,1.55,0,0,1-.495-.525,1.827,1.827,0,0,1-.225-.7,6.314,6.314,0,0,1-.045-.72v-4.8A3.2,3.2,0,0,0,6.4,22.535a3.366,3.366,0,0,0-.81-.99,3.046,3.046,0,0,0-.975-.54,4.048,4.048,0,0,0-.84-.2v-.09a4.581,4.581,0,0,0,.84-.18,2.819,2.819,0,0,0,.975-.525,3.183,3.183,0,0,0,.81-1.05A3.938,3.938,0,0,0,6.75,17.18V12.62a6.548,6.548,0,0,1,.045-.75,1.827,1.827,0,0,1,.225-.705,1.55,1.55,0,0,1,.495-.525,1.524,1.524,0,0,1,.855-.21Z" transform="translate(1171 639)" fill="#fff"/>
    <path id="Path_97-61" data-name="Path 97" d="M9.99,10.43V7.07H6.18a3.189,3.189,0,0,0-1.155.255,4.016,4.016,0,0,0-1.2.75,4.25,4.25,0,0,0-.945,1.26,3.88,3.88,0,0,0-.39,1.785v5.64a2.532,2.532,0,0,1-.3,1.275,2.712,2.712,0,0,1-.72.84,2.718,2.718,0,0,1-.9.45,3.088,3.088,0,0,1-.81.135v2.61a3.088,3.088,0,0,1,.81.135,3.078,3.078,0,0,1,.9.42,2.522,2.522,0,0,1,.72.765,2.165,2.165,0,0,1,.3,1.17v5.82a3.88,3.88,0,0,0,.39,1.785,4.25,4.25,0,0,0,.945,1.26,4.016,4.016,0,0,0,1.2.75,3.189,3.189,0,0,0,1.155.255H9.99V31.07H8.37a1.524,1.524,0,0,1-.855-.21,1.55,1.55,0,0,1-.495-.525,1.827,1.827,0,0,1-.225-.7,6.314,6.314,0,0,1-.045-.72v-4.8A3.2,3.2,0,0,0,6.4,22.535a3.366,3.366,0,0,0-.81-.99,3.046,3.046,0,0,0-.975-.54,4.048,4.048,0,0,0-.84-.2v-.09a4.581,4.581,0,0,0,.84-.18,2.819,2.819,0,0,0,.975-.525,3.183,3.183,0,0,0,.81-1.05A3.938,3.938,0,0,0,6.75,17.18V12.62a6.548,6.548,0,0,1,.045-.75,1.827,1.827,0,0,1,.225-.705,1.55,1.55,0,0,1,.495-.525,1.524,1.524,0,0,1,.855-.21Z" transform="translate(1303 639)" fill="#fff"/>
    <path id="Path_97-62" data-name="Path 97" d="M9.99,10.43V7.07H6.18a3.189,3.189,0,0,0-1.155.255,4.016,4.016,0,0,0-1.2.75,4.25,4.25,0,0,0-.945,1.26,3.88,3.88,0,0,0-.39,1.785v5.64a2.532,2.532,0,0,1-.3,1.275,2.712,2.712,0,0,1-.72.84,2.718,2.718,0,0,1-.9.45,3.088,3.088,0,0,1-.81.135v2.61a3.088,3.088,0,0,1,.81.135,3.078,3.078,0,0,1,.9.42,2.522,2.522,0,0,1,.72.765,2.165,2.165,0,0,1,.3,1.17v5.82a3.88,3.88,0,0,0,.39,1.785,4.25,4.25,0,0,0,.945,1.26,4.016,4.016,0,0,0,1.2.75,3.189,3.189,0,0,0,1.155.255H9.99V31.07H8.37a1.524,1.524,0,0,1-.855-.21,1.55,1.55,0,0,1-.495-.525,1.827,1.827,0,0,1-.225-.7,6.314,6.314,0,0,1-.045-.72v-4.8A3.2,3.2,0,0,0,6.4,22.535a3.366,3.366,0,0,0-.81-.99,3.046,3.046,0,0,0-.975-.54,4.048,4.048,0,0,0-.84-.2v-.09a4.581,4.581,0,0,0,.84-.18,2.819,2.819,0,0,0,.975-.525,3.183,3.183,0,0,0,.81-1.05A3.938,3.938,0,0,0,6.75,17.18V12.62a6.548,6.548,0,0,1,.045-.75,1.827,1.827,0,0,1,.225-.705,1.55,1.55,0,0,1,.495-.525,1.524,1.524,0,0,1,.855-.21Z" transform="translate(1336 639)" fill="#fff"/>
    <path id="Path_97-63" data-name="Path 97" d="M9.99,10.43V7.07H6.18a3.189,3.189,0,0,0-1.155.255,4.016,4.016,0,0,0-1.2.75,4.25,4.25,0,0,0-.945,1.26,3.88,3.88,0,0,0-.39,1.785v5.64a2.532,2.532,0,0,1-.3,1.275,2.712,2.712,0,0,1-.72.84,2.718,2.718,0,0,1-.9.45,3.088,3.088,0,0,1-.81.135v2.61a3.088,3.088,0,0,1,.81.135,3.078,3.078,0,0,1,.9.42,2.522,2.522,0,0,1,.72.765,2.165,2.165,0,0,1,.3,1.17v5.82a3.88,3.88,0,0,0,.39,1.785,4.25,4.25,0,0,0,.945,1.26,4.016,4.016,0,0,0,1.2.75,3.189,3.189,0,0,0,1.155.255H9.99V31.07H8.37a1.524,1.524,0,0,1-.855-.21,1.55,1.55,0,0,1-.495-.525,1.827,1.827,0,0,1-.225-.7,6.314,6.314,0,0,1-.045-.72v-4.8A3.2,3.2,0,0,0,6.4,22.535a3.366,3.366,0,0,0-.81-.99,3.046,3.046,0,0,0-.975-.54,4.048,4.048,0,0,0-.84-.2v-.09a4.581,4.581,0,0,0,.84-.18,2.819,2.819,0,0,0,.975-.525,3.183,3.183,0,0,0,.81-1.05A3.938,3.938,0,0,0,6.75,17.18V12.62a6.548,6.548,0,0,1,.045-.75,1.827,1.827,0,0,1,.225-.705,1.55,1.55,0,0,1,.495-.525,1.524,1.524,0,0,1,.855-.21Z" transform="translate(1369 639)" fill="#fff"/>
    <path id="Path_97-64" data-name="Path 97" d="M9.99,10.43V7.07H6.18a3.189,3.189,0,0,0-1.155.255,4.016,4.016,0,0,0-1.2.75,4.25,4.25,0,0,0-.945,1.26,3.88,3.88,0,0,0-.39,1.785v5.64a2.532,2.532,0,0,1-.3,1.275,2.712,2.712,0,0,1-.72.84,2.718,2.718,0,0,1-.9.45,3.088,3.088,0,0,1-.81.135v2.61a3.088,3.088,0,0,1,.81.135,3.078,3.078,0,0,1,.9.42,2.522,2.522,0,0,1,.72.765,2.165,2.165,0,0,1,.3,1.17v5.82a3.88,3.88,0,0,0,.39,1.785,4.25,4.25,0,0,0,.945,1.26,4.016,4.016,0,0,0,1.2.75,3.189,3.189,0,0,0,1.155.255H9.99V31.07H8.37a1.524,1.524,0,0,1-.855-.21,1.55,1.55,0,0,1-.495-.525,1.827,1.827,0,0,1-.225-.7,6.314,6.314,0,0,1-.045-.72v-4.8A3.2,3.2,0,0,0,6.4,22.535a3.366,3.366,0,0,0-.81-.99,3.046,3.046,0,0,0-.975-.54,4.048,4.048,0,0,0-.84-.2v-.09a4.581,4.581,0,0,0,.84-.18,2.819,2.819,0,0,0,.975-.525,3.183,3.183,0,0,0,.81-1.05A3.938,3.938,0,0,0,6.75,17.18V12.62a6.548,6.548,0,0,1,.045-.75,1.827,1.827,0,0,1,.225-.705,1.55,1.55,0,0,1,.495-.525,1.524,1.524,0,0,1,.855-.21Z" transform="translate(1402 639)" fill="#fff"/>
    <path id="Path_97-65" data-name="Path 97" d="M9.99,10.43V7.07H6.18a3.189,3.189,0,0,0-1.155.255,4.016,4.016,0,0,0-1.2.75,4.25,4.25,0,0,0-.945,1.26,3.88,3.88,0,0,0-.39,1.785v5.64a2.532,2.532,0,0,1-.3,1.275,2.712,2.712,0,0,1-.72.84,2.718,2.718,0,0,1-.9.45,3.088,3.088,0,0,1-.81.135v2.61a3.088,3.088,0,0,1,.81.135,3.078,3.078,0,0,1,.9.42,2.522,2.522,0,0,1,.72.765,2.165,2.165,0,0,1,.3,1.17v5.82a3.88,3.88,0,0,0,.39,1.785,4.25,4.25,0,0,0,.945,1.26,4.016,4.016,0,0,0,1.2.75,3.189,3.189,0,0,0,1.155.255H9.99V31.07H8.37a1.524,1.524,0,0,1-.855-.21,1.55,1.55,0,0,1-.495-.525,1.827,1.827,0,0,1-.225-.7,6.314,6.314,0,0,1-.045-.72v-4.8A3.2,3.2,0,0,0,6.4,22.535a3.366,3.366,0,0,0-.81-.99,3.046,3.046,0,0,0-.975-.54,4.048,4.048,0,0,0-.84-.2v-.09a4.581,4.581,0,0,0,.84-.18,2.819,2.819,0,0,0,.975-.525,3.183,3.183,0,0,0,.81-1.05A3.938,3.938,0,0,0,6.75,17.18V12.62a6.548,6.548,0,0,1,.045-.75,1.827,1.827,0,0,1,.225-.705,1.55,1.55,0,0,1,.495-.525,1.524,1.524,0,0,1,.855-.21Z" transform="translate(1435 639)" fill="#fff"/>
    <path id="Path_97-66" data-name="Path 97" d="M9.99,10.43V7.07H6.18a3.189,3.189,0,0,0-1.155.255,4.016,4.016,0,0,0-1.2.75,4.25,4.25,0,0,0-.945,1.26,3.88,3.88,0,0,0-.39,1.785v5.64a2.532,2.532,0,0,1-.3,1.275,2.712,2.712,0,0,1-.72.84,2.718,2.718,0,0,1-.9.45,3.088,3.088,0,0,1-.81.135v2.61a3.088,3.088,0,0,1,.81.135,3.078,3.078,0,0,1,.9.42,2.522,2.522,0,0,1,.72.765,2.165,2.165,0,0,1,.3,1.17v5.82a3.88,3.88,0,0,0,.39,1.785,4.25,4.25,0,0,0,.945,1.26,4.016,4.016,0,0,0,1.2.75,3.189,3.189,0,0,0,1.155.255H9.99V31.07H8.37a1.524,1.524,0,0,1-.855-.21,1.55,1.55,0,0,1-.495-.525,1.827,1.827,0,0,1-.225-.7,6.314,6.314,0,0,1-.045-.72v-4.8A3.2,3.2,0,0,0,6.4,22.535a3.366,3.366,0,0,0-.81-.99,3.046,3.046,0,0,0-.975-.54,4.048,4.048,0,0,0-.84-.2v-.09a4.581,4.581,0,0,0,.84-.18,2.819,2.819,0,0,0,.975-.525,3.183,3.183,0,0,0,.81-1.05A3.938,3.938,0,0,0,6.75,17.18V12.62a6.548,6.548,0,0,1,.045-.75,1.827,1.827,0,0,1,.225-.705,1.55,1.55,0,0,1,.495-.525,1.524,1.524,0,0,1,.855-.21Z" transform="translate(1072 693)" fill="#fff"/>
    <path id="Path_97-67" data-name="Path 97" d="M9.99,10.43V7.07H6.18a3.189,3.189,0,0,0-1.155.255,4.016,4.016,0,0,0-1.2.75,4.25,4.25,0,0,0-.945,1.26,3.88,3.88,0,0,0-.39,1.785v5.64a2.532,2.532,0,0,1-.3,1.275,2.712,2.712,0,0,1-.72.84,2.718,2.718,0,0,1-.9.45,3.088,3.088,0,0,1-.81.135v2.61a3.088,3.088,0,0,1,.81.135,3.078,3.078,0,0,1,.9.42,2.522,2.522,0,0,1,.72.765,2.165,2.165,0,0,1,.3,1.17v5.82a3.88,3.88,0,0,0,.39,1.785,4.25,4.25,0,0,0,.945,1.26,4.016,4.016,0,0,0,1.2.75,3.189,3.189,0,0,0,1.155.255H9.99V31.07H8.37a1.524,1.524,0,0,1-.855-.21,1.55,1.55,0,0,1-.495-.525,1.827,1.827,0,0,1-.225-.7,6.314,6.314,0,0,1-.045-.72v-4.8A3.2,3.2,0,0,0,6.4,22.535a3.366,3.366,0,0,0-.81-.99,3.046,3.046,0,0,0-.975-.54,4.048,4.048,0,0,0-.84-.2v-.09a4.581,4.581,0,0,0,.84-.18,2.819,2.819,0,0,0,.975-.525,3.183,3.183,0,0,0,.81-1.05A3.938,3.938,0,0,0,6.75,17.18V12.62a6.548,6.548,0,0,1,.045-.75,1.827,1.827,0,0,1,.225-.705,1.55,1.55,0,0,1,.495-.525,1.524,1.524,0,0,1,.855-.21Z" transform="translate(1105 693)" fill="#fff"/>
    <path id="Path_97-68" data-name="Path 97" d="M9.99,10.43V7.07H6.18a3.189,3.189,0,0,0-1.155.255,4.016,4.016,0,0,0-1.2.75,4.25,4.25,0,0,0-.945,1.26,3.88,3.88,0,0,0-.39,1.785v5.64a2.532,2.532,0,0,1-.3,1.275,2.712,2.712,0,0,1-.72.84,2.718,2.718,0,0,1-.9.45,3.088,3.088,0,0,1-.81.135v2.61a3.088,3.088,0,0,1,.81.135,3.078,3.078,0,0,1,.9.42,2.522,2.522,0,0,1,.72.765,2.165,2.165,0,0,1,.3,1.17v5.82a3.88,3.88,0,0,0,.39,1.785,4.25,4.25,0,0,0,.945,1.26,4.016,4.016,0,0,0,1.2.75,3.189,3.189,0,0,0,1.155.255H9.99V31.07H8.37a1.524,1.524,0,0,1-.855-.21,1.55,1.55,0,0,1-.495-.525,1.827,1.827,0,0,1-.225-.7,6.314,6.314,0,0,1-.045-.72v-4.8A3.2,3.2,0,0,0,6.4,22.535a3.366,3.366,0,0,0-.81-.99,3.046,3.046,0,0,0-.975-.54,4.048,4.048,0,0,0-.84-.2v-.09a4.581,4.581,0,0,0,.84-.18,2.819,2.819,0,0,0,.975-.525,3.183,3.183,0,0,0,.81-1.05A3.938,3.938,0,0,0,6.75,17.18V12.62a6.548,6.548,0,0,1,.045-.75,1.827,1.827,0,0,1,.225-.705,1.55,1.55,0,0,1,.495-.525,1.524,1.524,0,0,1,.855-.21Z" transform="translate(1138 693)" fill="#fff"/>
    <path id="Path_97-69" data-name="Path 97" d="M9.99,10.43V7.07H6.18a3.189,3.189,0,0,0-1.155.255,4.016,4.016,0,0,0-1.2.75,4.25,4.25,0,0,0-.945,1.26,3.88,3.88,0,0,0-.39,1.785v5.64a2.532,2.532,0,0,1-.3,1.275,2.712,2.712,0,0,1-.72.84,2.718,2.718,0,0,1-.9.45,3.088,3.088,0,0,1-.81.135v2.61a3.088,3.088,0,0,1,.81.135,3.078,3.078,0,0,1,.9.42,2.522,2.522,0,0,1,.72.765,2.165,2.165,0,0,1,.3,1.17v5.82a3.88,3.88,0,0,0,.39,1.785,4.25,4.25,0,0,0,.945,1.26,4.016,4.016,0,0,0,1.2.75,3.189,3.189,0,0,0,1.155.255H9.99V31.07H8.37a1.524,1.524,0,0,1-.855-.21,1.55,1.55,0,0,1-.495-.525,1.827,1.827,0,0,1-.225-.7,6.314,6.314,0,0,1-.045-.72v-4.8A3.2,3.2,0,0,0,6.4,22.535a3.366,3.366,0,0,0-.81-.99,3.046,3.046,0,0,0-.975-.54,4.048,4.048,0,0,0-.84-.2v-.09a4.581,4.581,0,0,0,.84-.18,2.819,2.819,0,0,0,.975-.525,3.183,3.183,0,0,0,.81-1.05A3.938,3.938,0,0,0,6.75,17.18V12.62a6.548,6.548,0,0,1,.045-.75,1.827,1.827,0,0,1,.225-.705,1.55,1.55,0,0,1,.495-.525,1.524,1.524,0,0,1,.855-.21Z" transform="translate(1171 693)" fill="#fff"/>
    <path id="Path_97-70" data-name="Path 97" d="M9.99,10.43V7.07H6.18a3.189,3.189,0,0,0-1.155.255,4.016,4.016,0,0,0-1.2.75,4.25,4.25,0,0,0-.945,1.26,3.88,3.88,0,0,0-.39,1.785v5.64a2.532,2.532,0,0,1-.3,1.275,2.712,2.712,0,0,1-.72.84,2.718,2.718,0,0,1-.9.45,3.088,3.088,0,0,1-.81.135v2.61a3.088,3.088,0,0,1,.81.135,3.078,3.078,0,0,1,.9.42,2.522,2.522,0,0,1,.72.765,2.165,2.165,0,0,1,.3,1.17v5.82a3.88,3.88,0,0,0,.39,1.785,4.25,4.25,0,0,0,.945,1.26,4.016,4.016,0,0,0,1.2.75,3.189,3.189,0,0,0,1.155.255H9.99V31.07H8.37a1.524,1.524,0,0,1-.855-.21,1.55,1.55,0,0,1-.495-.525,1.827,1.827,0,0,1-.225-.7,6.314,6.314,0,0,1-.045-.72v-4.8A3.2,3.2,0,0,0,6.4,22.535a3.366,3.366,0,0,0-.81-.99,3.046,3.046,0,0,0-.975-.54,4.048,4.048,0,0,0-.84-.2v-.09a4.581,4.581,0,0,0,.84-.18,2.819,2.819,0,0,0,.975-.525,3.183,3.183,0,0,0,.81-1.05A3.938,3.938,0,0,0,6.75,17.18V12.62a6.548,6.548,0,0,1,.045-.75,1.827,1.827,0,0,1,.225-.705,1.55,1.55,0,0,1,.495-.525,1.524,1.524,0,0,1,.855-.21Z" transform="translate(1303 693)" fill="#fff"/>
    <path id="Path_97-71" data-name="Path 97" d="M9.99,10.43V7.07H6.18a3.189,3.189,0,0,0-1.155.255,4.016,4.016,0,0,0-1.2.75,4.25,4.25,0,0,0-.945,1.26,3.88,3.88,0,0,0-.39,1.785v5.64a2.532,2.532,0,0,1-.3,1.275,2.712,2.712,0,0,1-.72.84,2.718,2.718,0,0,1-.9.45,3.088,3.088,0,0,1-.81.135v2.61a3.088,3.088,0,0,1,.81.135,3.078,3.078,0,0,1,.9.42,2.522,2.522,0,0,1,.72.765,2.165,2.165,0,0,1,.3,1.17v5.82a3.88,3.88,0,0,0,.39,1.785,4.25,4.25,0,0,0,.945,1.26,4.016,4.016,0,0,0,1.2.75,3.189,3.189,0,0,0,1.155.255H9.99V31.07H8.37a1.524,1.524,0,0,1-.855-.21,1.55,1.55,0,0,1-.495-.525,1.827,1.827,0,0,1-.225-.7,6.314,6.314,0,0,1-.045-.72v-4.8A3.2,3.2,0,0,0,6.4,22.535a3.366,3.366,0,0,0-.81-.99,3.046,3.046,0,0,0-.975-.54,4.048,4.048,0,0,0-.84-.2v-.09a4.581,4.581,0,0,0,.84-.18,2.819,2.819,0,0,0,.975-.525,3.183,3.183,0,0,0,.81-1.05A3.938,3.938,0,0,0,6.75,17.18V12.62a6.548,6.548,0,0,1,.045-.75,1.827,1.827,0,0,1,.225-.705,1.55,1.55,0,0,1,.495-.525,1.524,1.524,0,0,1,.855-.21Z" transform="translate(1336 693)" fill="#fff"/>
    <path id="Path_97-72" data-name="Path 97" d="M9.99,10.43V7.07H6.18a3.189,3.189,0,0,0-1.155.255,4.016,4.016,0,0,0-1.2.75,4.25,4.25,0,0,0-.945,1.26,3.88,3.88,0,0,0-.39,1.785v5.64a2.532,2.532,0,0,1-.3,1.275,2.712,2.712,0,0,1-.72.84,2.718,2.718,0,0,1-.9.45,3.088,3.088,0,0,1-.81.135v2.61a3.088,3.088,0,0,1,.81.135,3.078,3.078,0,0,1,.9.42,2.522,2.522,0,0,1,.72.765,2.165,2.165,0,0,1,.3,1.17v5.82a3.88,3.88,0,0,0,.39,1.785,4.25,4.25,0,0,0,.945,1.26,4.016,4.016,0,0,0,1.2.75,3.189,3.189,0,0,0,1.155.255H9.99V31.07H8.37a1.524,1.524,0,0,1-.855-.21,1.55,1.55,0,0,1-.495-.525,1.827,1.827,0,0,1-.225-.7,6.314,6.314,0,0,1-.045-.72v-4.8A3.2,3.2,0,0,0,6.4,22.535a3.366,3.366,0,0,0-.81-.99,3.046,3.046,0,0,0-.975-.54,4.048,4.048,0,0,0-.84-.2v-.09a4.581,4.581,0,0,0,.84-.18,2.819,2.819,0,0,0,.975-.525,3.183,3.183,0,0,0,.81-1.05A3.938,3.938,0,0,0,6.75,17.18V12.62a6.548,6.548,0,0,1,.045-.75,1.827,1.827,0,0,1,.225-.705,1.55,1.55,0,0,1,.495-.525,1.524,1.524,0,0,1,.855-.21Z" transform="translate(1369 693)" fill="#fff"/>
    <path id="Path_97-73" data-name="Path 97" d="M9.99,10.43V7.07H6.18a3.189,3.189,0,0,0-1.155.255,4.016,4.016,0,0,0-1.2.75,4.25,4.25,0,0,0-.945,1.26,3.88,3.88,0,0,0-.39,1.785v5.64a2.532,2.532,0,0,1-.3,1.275,2.712,2.712,0,0,1-.72.84,2.718,2.718,0,0,1-.9.45,3.088,3.088,0,0,1-.81.135v2.61a3.088,3.088,0,0,1,.81.135,3.078,3.078,0,0,1,.9.42,2.522,2.522,0,0,1,.72.765,2.165,2.165,0,0,1,.3,1.17v5.82a3.88,3.88,0,0,0,.39,1.785,4.25,4.25,0,0,0,.945,1.26,4.016,4.016,0,0,0,1.2.75,3.189,3.189,0,0,0,1.155.255H9.99V31.07H8.37a1.524,1.524,0,0,1-.855-.21,1.55,1.55,0,0,1-.495-.525,1.827,1.827,0,0,1-.225-.7,6.314,6.314,0,0,1-.045-.72v-4.8A3.2,3.2,0,0,0,6.4,22.535a3.366,3.366,0,0,0-.81-.99,3.046,3.046,0,0,0-.975-.54,4.048,4.048,0,0,0-.84-.2v-.09a4.581,4.581,0,0,0,.84-.18,2.819,2.819,0,0,0,.975-.525,3.183,3.183,0,0,0,.81-1.05A3.938,3.938,0,0,0,6.75,17.18V12.62a6.548,6.548,0,0,1,.045-.75,1.827,1.827,0,0,1,.225-.705,1.55,1.55,0,0,1,.495-.525,1.524,1.524,0,0,1,.855-.21Z" transform="translate(1402 693)" fill="#fff"/>
    <path id="Path_97-74" data-name="Path 97" d="M9.99,10.43V7.07H6.18a3.189,3.189,0,0,0-1.155.255,4.016,4.016,0,0,0-1.2.75,4.25,4.25,0,0,0-.945,1.26,3.88,3.88,0,0,0-.39,1.785v5.64a2.532,2.532,0,0,1-.3,1.275,2.712,2.712,0,0,1-.72.84,2.718,2.718,0,0,1-.9.45,3.088,3.088,0,0,1-.81.135v2.61a3.088,3.088,0,0,1,.81.135,3.078,3.078,0,0,1,.9.42,2.522,2.522,0,0,1,.72.765,2.165,2.165,0,0,1,.3,1.17v5.82a3.88,3.88,0,0,0,.39,1.785,4.25,4.25,0,0,0,.945,1.26,4.016,4.016,0,0,0,1.2.75,3.189,3.189,0,0,0,1.155.255H9.99V31.07H8.37a1.524,1.524,0,0,1-.855-.21,1.55,1.55,0,0,1-.495-.525,1.827,1.827,0,0,1-.225-.7,6.314,6.314,0,0,1-.045-.72v-4.8A3.2,3.2,0,0,0,6.4,22.535a3.366,3.366,0,0,0-.81-.99,3.046,3.046,0,0,0-.975-.54,4.048,4.048,0,0,0-.84-.2v-.09a4.581,4.581,0,0,0,.84-.18,2.819,2.819,0,0,0,.975-.525,3.183,3.183,0,0,0,.81-1.05A3.938,3.938,0,0,0,6.75,17.18V12.62a6.548,6.548,0,0,1,.045-.75,1.827,1.827,0,0,1,.225-.705,1.55,1.55,0,0,1,.495-.525,1.524,1.524,0,0,1,.855-.21Z" transform="translate(1072 747)" fill="#fff"/>
    <path id="Path_97-75" data-name="Path 97" d="M9.99,10.43V7.07H6.18a3.189,3.189,0,0,0-1.155.255,4.016,4.016,0,0,0-1.2.75,4.25,4.25,0,0,0-.945,1.26,3.88,3.88,0,0,0-.39,1.785v5.64a2.532,2.532,0,0,1-.3,1.275,2.712,2.712,0,0,1-.72.84,2.718,2.718,0,0,1-.9.45,3.088,3.088,0,0,1-.81.135v2.61a3.088,3.088,0,0,1,.81.135,3.078,3.078,0,0,1,.9.42,2.522,2.522,0,0,1,.72.765,2.165,2.165,0,0,1,.3,1.17v5.82a3.88,3.88,0,0,0,.39,1.785,4.25,4.25,0,0,0,.945,1.26,4.016,4.016,0,0,0,1.2.75,3.189,3.189,0,0,0,1.155.255H9.99V31.07H8.37a1.524,1.524,0,0,1-.855-.21,1.55,1.55,0,0,1-.495-.525,1.827,1.827,0,0,1-.225-.7,6.314,6.314,0,0,1-.045-.72v-4.8A3.2,3.2,0,0,0,6.4,22.535a3.366,3.366,0,0,0-.81-.99,3.046,3.046,0,0,0-.975-.54,4.048,4.048,0,0,0-.84-.2v-.09a4.581,4.581,0,0,0,.84-.18,2.819,2.819,0,0,0,.975-.525,3.183,3.183,0,0,0,.81-1.05A3.938,3.938,0,0,0,6.75,17.18V12.62a6.548,6.548,0,0,1,.045-.75,1.827,1.827,0,0,1,.225-.705,1.55,1.55,0,0,1,.495-.525,1.524,1.524,0,0,1,.855-.21Z" transform="translate(1105 747)" fill="#fff"/>
    <path id="Path_97-76" data-name="Path 97" d="M9.99,10.43V7.07H6.18a3.189,3.189,0,0,0-1.155.255,4.016,4.016,0,0,0-1.2.75,4.25,4.25,0,0,0-.945,1.26,3.88,3.88,0,0,0-.39,1.785v5.64a2.532,2.532,0,0,1-.3,1.275,2.712,2.712,0,0,1-.72.84,2.718,2.718,0,0,1-.9.45,3.088,3.088,0,0,1-.81.135v2.61a3.088,3.088,0,0,1,.81.135,3.078,3.078,0,0,1,.9.42,2.522,2.522,0,0,1,.72.765,2.165,2.165,0,0,1,.3,1.17v5.82a3.88,3.88,0,0,0,.39,1.785,4.25,4.25,0,0,0,.945,1.26,4.016,4.016,0,0,0,1.2.75,3.189,3.189,0,0,0,1.155.255H9.99V31.07H8.37a1.524,1.524,0,0,1-.855-.21,1.55,1.55,0,0,1-.495-.525,1.827,1.827,0,0,1-.225-.7,6.314,6.314,0,0,1-.045-.72v-4.8A3.2,3.2,0,0,0,6.4,22.535a3.366,3.366,0,0,0-.81-.99,3.046,3.046,0,0,0-.975-.54,4.048,4.048,0,0,0-.84-.2v-.09a4.581,4.581,0,0,0,.84-.18,2.819,2.819,0,0,0,.975-.525,3.183,3.183,0,0,0,.81-1.05A3.938,3.938,0,0,0,6.75,17.18V12.62a6.548,6.548,0,0,1,.045-.75,1.827,1.827,0,0,1,.225-.705,1.55,1.55,0,0,1,.495-.525,1.524,1.524,0,0,1,.855-.21Z" transform="translate(1138 747)" fill="#fff"/>
    <path id="Path_97-77" data-name="Path 97" d="M9.99,10.43V7.07H6.18a3.189,3.189,0,0,0-1.155.255,4.016,4.016,0,0,0-1.2.75,4.25,4.25,0,0,0-.945,1.26,3.88,3.88,0,0,0-.39,1.785v5.64a2.532,2.532,0,0,1-.3,1.275,2.712,2.712,0,0,1-.72.84,2.718,2.718,0,0,1-.9.45,3.088,3.088,0,0,1-.81.135v2.61a3.088,3.088,0,0,1,.81.135,3.078,3.078,0,0,1,.9.42,2.522,2.522,0,0,1,.72.765,2.165,2.165,0,0,1,.3,1.17v5.82a3.88,3.88,0,0,0,.39,1.785,4.25,4.25,0,0,0,.945,1.26,4.016,4.016,0,0,0,1.2.75,3.189,3.189,0,0,0,1.155.255H9.99V31.07H8.37a1.524,1.524,0,0,1-.855-.21,1.55,1.55,0,0,1-.495-.525,1.827,1.827,0,0,1-.225-.7,6.314,6.314,0,0,1-.045-.72v-4.8A3.2,3.2,0,0,0,6.4,22.535a3.366,3.366,0,0,0-.81-.99,3.046,3.046,0,0,0-.975-.54,4.048,4.048,0,0,0-.84-.2v-.09a4.581,4.581,0,0,0,.84-.18,2.819,2.819,0,0,0,.975-.525,3.183,3.183,0,0,0,.81-1.05A3.938,3.938,0,0,0,6.75,17.18V12.62a6.548,6.548,0,0,1,.045-.75,1.827,1.827,0,0,1,.225-.705,1.55,1.55,0,0,1,.495-.525,1.524,1.524,0,0,1,.855-.21Z" transform="translate(1171 747)" fill="#fff"/>
    <path id="Path_97-78" data-name="Path 97" d="M9.99,10.43V7.07H6.18a3.189,3.189,0,0,0-1.155.255,4.016,4.016,0,0,0-1.2.75,4.25,4.25,0,0,0-.945,1.26,3.88,3.88,0,0,0-.39,1.785v5.64a2.532,2.532,0,0,1-.3,1.275,2.712,2.712,0,0,1-.72.84,2.718,2.718,0,0,1-.9.45,3.088,3.088,0,0,1-.81.135v2.61a3.088,3.088,0,0,1,.81.135,3.078,3.078,0,0,1,.9.42,2.522,2.522,0,0,1,.72.765,2.165,2.165,0,0,1,.3,1.17v5.82a3.88,3.88,0,0,0,.39,1.785,4.25,4.25,0,0,0,.945,1.26,4.016,4.016,0,0,0,1.2.75,3.189,3.189,0,0,0,1.155.255H9.99V31.07H8.37a1.524,1.524,0,0,1-.855-.21,1.55,1.55,0,0,1-.495-.525,1.827,1.827,0,0,1-.225-.7,6.314,6.314,0,0,1-.045-.72v-4.8A3.2,3.2,0,0,0,6.4,22.535a3.366,3.366,0,0,0-.81-.99,3.046,3.046,0,0,0-.975-.54,4.048,4.048,0,0,0-.84-.2v-.09a4.581,4.581,0,0,0,.84-.18,2.819,2.819,0,0,0,.975-.525,3.183,3.183,0,0,0,.81-1.05A3.938,3.938,0,0,0,6.75,17.18V12.62a6.548,6.548,0,0,1,.045-.75,1.827,1.827,0,0,1,.225-.705,1.55,1.55,0,0,1,.495-.525,1.524,1.524,0,0,1,.855-.21Z" transform="translate(1303 747)" fill="#fff"/>
    <path id="Path_97-79" data-name="Path 97" d="M9.99,10.43V7.07H6.18a3.189,3.189,0,0,0-1.155.255,4.016,4.016,0,0,0-1.2.75,4.25,4.25,0,0,0-.945,1.26,3.88,3.88,0,0,0-.39,1.785v5.64a2.532,2.532,0,0,1-.3,1.275,2.712,2.712,0,0,1-.72.84,2.718,2.718,0,0,1-.9.45,3.088,3.088,0,0,1-.81.135v2.61a3.088,3.088,0,0,1,.81.135,3.078,3.078,0,0,1,.9.42,2.522,2.522,0,0,1,.72.765,2.165,2.165,0,0,1,.3,1.17v5.82a3.88,3.88,0,0,0,.39,1.785,4.25,4.25,0,0,0,.945,1.26,4.016,4.016,0,0,0,1.2.75,3.189,3.189,0,0,0,1.155.255H9.99V31.07H8.37a1.524,1.524,0,0,1-.855-.21,1.55,1.55,0,0,1-.495-.525,1.827,1.827,0,0,1-.225-.7,6.314,6.314,0,0,1-.045-.72v-4.8A3.2,3.2,0,0,0,6.4,22.535a3.366,3.366,0,0,0-.81-.99,3.046,3.046,0,0,0-.975-.54,4.048,4.048,0,0,0-.84-.2v-.09a4.581,4.581,0,0,0,.84-.18,2.819,2.819,0,0,0,.975-.525,3.183,3.183,0,0,0,.81-1.05A3.938,3.938,0,0,0,6.75,17.18V12.62a6.548,6.548,0,0,1,.045-.75,1.827,1.827,0,0,1,.225-.705,1.55,1.55,0,0,1,.495-.525,1.524,1.524,0,0,1,.855-.21Z" transform="translate(1336 747)" fill="#fff"/>
    <path id="Path_97-80" data-name="Path 97" d="M9.99,10.43V7.07H6.18a3.189,3.189,0,0,0-1.155.255,4.016,4.016,0,0,0-1.2.75,4.25,4.25,0,0,0-.945,1.26,3.88,3.88,0,0,0-.39,1.785v5.64a2.532,2.532,0,0,1-.3,1.275,2.712,2.712,0,0,1-.72.84,2.718,2.718,0,0,1-.9.45,3.088,3.088,0,0,1-.81.135v2.61a3.088,3.088,0,0,1,.81.135,3.078,3.078,0,0,1,.9.42,2.522,2.522,0,0,1,.72.765,2.165,2.165,0,0,1,.3,1.17v5.82a3.88,3.88,0,0,0,.39,1.785,4.25,4.25,0,0,0,.945,1.26,4.016,4.016,0,0,0,1.2.75,3.189,3.189,0,0,0,1.155.255H9.99V31.07H8.37a1.524,1.524,0,0,1-.855-.21,1.55,1.55,0,0,1-.495-.525,1.827,1.827,0,0,1-.225-.7,6.314,6.314,0,0,1-.045-.72v-4.8A3.2,3.2,0,0,0,6.4,22.535a3.366,3.366,0,0,0-.81-.99,3.046,3.046,0,0,0-.975-.54,4.048,4.048,0,0,0-.84-.2v-.09a4.581,4.581,0,0,0,.84-.18,2.819,2.819,0,0,0,.975-.525,3.183,3.183,0,0,0,.81-1.05A3.938,3.938,0,0,0,6.75,17.18V12.62a6.548,6.548,0,0,1,.045-.75,1.827,1.827,0,0,1,.225-.705,1.55,1.55,0,0,1,.495-.525,1.524,1.524,0,0,1,.855-.21Z" transform="translate(1369 747)" fill="#fff"/>
    <path id="Path_97-81" data-name="Path 97" d="M9.99,10.43V7.07H6.18a3.189,3.189,0,0,0-1.155.255,4.016,4.016,0,0,0-1.2.75,4.25,4.25,0,0,0-.945,1.26,3.88,3.88,0,0,0-.39,1.785v5.64a2.532,2.532,0,0,1-.3,1.275,2.712,2.712,0,0,1-.72.84,2.718,2.718,0,0,1-.9.45,3.088,3.088,0,0,1-.81.135v2.61a3.088,3.088,0,0,1,.81.135,3.078,3.078,0,0,1,.9.42,2.522,2.522,0,0,1,.72.765,2.165,2.165,0,0,1,.3,1.17v5.82a3.88,3.88,0,0,0,.39,1.785,4.25,4.25,0,0,0,.945,1.26,4.016,4.016,0,0,0,1.2.75,3.189,3.189,0,0,0,1.155.255H9.99V31.07H8.37a1.524,1.524,0,0,1-.855-.21,1.55,1.55,0,0,1-.495-.525,1.827,1.827,0,0,1-.225-.7,6.314,6.314,0,0,1-.045-.72v-4.8A3.2,3.2,0,0,0,6.4,22.535a3.366,3.366,0,0,0-.81-.99,3.046,3.046,0,0,0-.975-.54,4.048,4.048,0,0,0-.84-.2v-.09a4.581,4.581,0,0,0,.84-.18,2.819,2.819,0,0,0,.975-.525,3.183,3.183,0,0,0,.81-1.05A3.938,3.938,0,0,0,6.75,17.18V12.62a6.548,6.548,0,0,1,.045-.75,1.827,1.827,0,0,1,.225-.705,1.55,1.55,0,0,1,.495-.525,1.524,1.524,0,0,1,.855-.21Z" transform="translate(1402 747)" fill="#fff"/>
  </g>
</svg>
